<svg width="996" height="948" xmlns="http://www.w3.org/2000/svg" xmlns:xlink="http://www.w3.org/1999/xlink" overflow="hidden"><defs><clipPath id="clip0"><path d="M0 0 996 0 996 948 0 948Z" fill-rule="evenodd" clip-rule="evenodd"/></clipPath><clipPath id="clip1"><path d="M155 140 967 140 967 949 155 949Z" fill-rule="evenodd" clip-rule="evenodd"/></clipPath><clipPath id="clip2"><path d="M155 140 967 140 967 949 155 949Z" fill-rule="evenodd" clip-rule="evenodd"/></clipPath><clipPath id="clip3"><path d="M-100 140 1222 140 1222 1178-100 1178Z" fill-rule="evenodd" clip-rule="evenodd"/></clipPath><clipPath id="clip4"><path d="M12 97 48 97 48 474 12 474Z" fill-rule="evenodd" clip-rule="evenodd"/></clipPath><clipPath id="clip5"><path d="M12 97 48 97 48 474 12 474Z" fill-rule="evenodd" clip-rule="evenodd"/></clipPath><clipPath id="clip6"><path d="M12 37 992 37 992 567 12 567Z" fill-rule="evenodd" clip-rule="evenodd"/></clipPath></defs><g clip-path="url(#clip0)"><rect x="0" y="0" width="996" height="947.319" fill="#FFFFFF" fill-opacity="0" transform="scale(1 1.00072)"/><g clip-path="url(#clip1)"><g clip-path="url(#clip2)"><g clip-path="url(#clip3)"><text fill="#666666" font-family="Roboto,Roboto_MSFontService,sans-serif" font-weight="700" font-size="30" transform="matrix(1.76217 0 0 1.72833 501.205 659)">3373<tspan font-size="20" x="-12.5" y="23.7223">PATIENTS</tspan></text><path d="M1.69706e-14-277.151C153.066-277.151 277.151-153.066 277.151-9.23074e-06 277.151 153.066 153.066 277.151 9.23074e-06 277.151-121.764 277.151-229.267 197.675-264.969 81.2625L-187.362 57.4613C-155.626 160.938-46.0155 219.096 57.4614 187.362 160.938 155.626 219.096 46.0155 187.362-57.4613 162.116-139.778 86.1005-195.974 6.60825e-06-195.974Z" stroke="#FFFFFF" stroke-width="1.72833" fill="#930039" fill-rule="evenodd" transform="matrix(1.01958 0 -0 1 561.119 658.501)"/><text fill="#FFFFFF" font-family="Roboto,Roboto_MSFontService,sans-serif" font-weight="400" transform="matrix(1.76217 0 0 1.72833 734.802 806)">70%</text><path d="M-264.969 81.2627C-306.038-52.651-240.736-196.157-112.79-253.161L-79.7545-179.012C-170.226-138.705-216.401-37.2299-187.362 57.4613Z" stroke="#FFFFFF" stroke-width="1.72833" fill="#D1D1D1" fill-rule="evenodd" transform="matrix(1.01958 0 -0 1 561.119 658.501)"/><text fill="#FFFFFF" font-family="Roboto,Roboto_MSFontService,sans-serif" font-weight="400" transform="matrix(1.76217 0 0 1.72833 321.321 568)">23%</text><path d="M-112.79-253.161C-99.8938-258.906-86.5773-263.659-72.9568-267.375L-51.5884-189.063C-61.2194-186.435-70.6355-183.076-79.7545-179.012Z" stroke="#FFFFFF" stroke-width="1.72833" fill="#8191AC" fill-rule="evenodd" transform="matrix(1.01958 0 -0 1 561.119 658.501)"/><path d="M-72.9568-267.375C-60.8327-270.683-48.4974-273.163-36.0366-274.797L-25.4819-194.312C-34.2929-193.155-43.0151-191.403-51.5884-189.063Z" stroke="#FFFFFF" stroke-width="1.72833" fill="#A7B893" fill-rule="evenodd" transform="matrix(1.01958 0 -0 1 561.119 658.501)"/><path d="M-36.0366-274.797C-29.5521-275.647-23.0394-276.267-16.5109-276.658L-11.675-195.627C-16.2913-195.352-20.8964-194.913-25.4819-194.312Z" stroke="#FFFFFF" stroke-width="1.72833" fill-rule="evenodd" transform="matrix(1.01958 0 -0 1 561.119 658.501)"/><path d="M-16.5109-276.658C-11.0134-276.986-5.5073-277.151-4.84933e-07-277.151L1.38061e-13-195.974C-3.89425-195.974-7.78765-195.858-11.675-195.627Z" stroke="#FFFFFF" stroke-width="1.72833" fill="#FFA319" fill-rule="evenodd" transform="matrix(1.01958 0 -0 1 561.119 658.501)"/><path d="M2.07846e-14-339.438C51.6497-339.438 102.618-327.651 149.024-304.975L121.678-249.012C83.7874-267.525 42.1717-277.151-3.47006e-06-277.151Z" stroke="#FFFFFF" stroke-width="1.72833" fill="#A7B893" fill-rule="evenodd" transform="matrix(1.01958 0 -0 1 561.119 658.501)"/><text fill="#FFFFFF" font-family="Roboto,Roboto_MSFontService,sans-serif" font-weight="400" transform="matrix(1.76217 0 0 1.72833 617.843 365)">7%</text><path d="M149.024-304.975C194.662-282.674 234.715-250.415 266.226-210.575L217.373-171.934C191.643-204.464 158.941-230.804 121.678-249.012Z" stroke="#FFFFFF" stroke-width="1.72833" fill="#FFA319" fill-rule="evenodd" transform="matrix(1.01958 0 -0 1 561.119 658.501)"/><text fill="#FFFFFF" font-family="Roboto,Roboto_MSFontService,sans-serif" font-weight="400" transform="matrix(1.76217 0 0 1.72833 744.195 426)">7%</text><path d="M266.226-210.575C286.134-185.407 302.372-157.542 314.455-127.813L256.751-104.359C246.886-128.632 233.628-151.384 217.373-171.934Z" stroke="#FFFFFF" stroke-width="1.72833" fill="#D1D1D1" fill-rule="evenodd" transform="matrix(1.01958 0 -0 1 561.119 658.501)"/><text fill="#FFFFFF" font-family="Roboto,Roboto_MSFontService,sans-serif" font-weight="400" transform="matrix(1.76217 0 0 1.72833 818.602 511)">5%</text><path d="M314.455-127.813C317.232-120.979 319.787-114.056 322.115-107.055L263.006-87.4098C261.105-93.1261 259.02-98.7788 256.751-104.359Z" stroke="#FFFFFF" stroke-width="1.72833" fill="#8191AC" fill-rule="evenodd" transform="matrix(1.01958 0 -0 1 561.119 658.501)"/><path d="M322.115-107.055C323.71-102.254 325.198-97.4188 326.578-92.5518L266.649-75.5682C265.522-79.5421 264.307-83.4902 263.006-87.4098Z" stroke="#FFFFFF" stroke-width="1.72833" fill-rule="evenodd" transform="matrix(1.01958 0 -0 1 561.119 658.501)"/><path d="M-324.519 99.526C-347.295 25.2605-343.911-54.5703-314.929-126.641L-257.138-103.402C-280.803-44.5565-283.566 20.6251-264.969 81.2627Z" stroke="#FFFFFF" stroke-width="1.72833" fill="#930039" fill-rule="evenodd" transform="matrix(1.01958 0 -0 1 561.119 658.501)"/><text fill="#FFFFFF" font-family="Roboto,Roboto_MSFontService,sans-serif" font-weight="400" transform="matrix(1.76217 0 0 1.72833 226.807 653)">11%</text><path d="M-314.929-126.641C-312.569-132.508-310.048-138.308-307.364-144.034L-250.961-117.603C-253.153-112.928-255.213-108.192-257.138-103.402Z" stroke="#FFFFFF" stroke-width="1.72833" fill-rule="evenodd" transform="matrix(1.01958 0 -0 1 561.119 658.501)"/><path d="M-307.364-144.034C-306.38-146.133-305.374-148.222-304.348-150.301L-248.5-122.72C-249.338-121.023-250.159-119.317-250.961-117.603Z" stroke="#FFFFFF" stroke-width="1.72833" fill="#A7B893" fill-rule="evenodd" transform="matrix(1.01958 0 -0 1 561.119 658.501)"/><path d="M-138.139-310.058C-126.97-315.034-115.54-319.403-103.899-323.145L-84.8336-263.848C-94.3381-260.792-103.671-257.225-112.79-253.161Z" stroke="#FFFFFF" stroke-width="1.72833" fill="#930039" fill-rule="evenodd" transform="matrix(1.01958 0 -0 1 561.119 658.501)"/><path d="M-89.3535-327.466C-84.0667-328.909-78.7455-330.223-73.395-331.408L-59.9267-270.593C-64.2954-269.625-68.6401-268.554-72.9568-267.375Z" stroke="#FFFFFF" stroke-width="1.72833" fill="#FFA319" fill-rule="evenodd" transform="matrix(1.01958 0 -0 1 561.119 658.501)"/><path d="M-73.395-331.408C-68.4561-332.502-63.4933-333.486-58.5104-334.357L-47.7734-273.001C-51.8421-272.291-55.8942-271.487-59.9267-270.593Z" stroke="#FFFFFF" stroke-width="1.72833" fill="#930039" fill-rule="evenodd" transform="matrix(1.01958 0 -0 1 561.119 658.501)"/><path d="M2.4e-14-391.95C39.012-391.95 77.8051-386.126 115.097-374.668L99.677-324.472C67.3812-334.395 33.7853-339.438-2.58365e-06-339.438Z" stroke="#FFFFFF" stroke-width="1.72833" fill="#930039" fill-rule="evenodd" transform="matrix(1.01958 0 -0 1 561.119 658.501)"/><text fill="#FFFFFF" font-family="Roboto,Roboto_MSFontService,sans-serif" font-weight="400" transform="matrix(1.76217 0 0 1.72833 602.38 304)">5%</text><path d="M115.097-374.668C129.525-370.237 143.685-364.976 157.506-358.909L136.404-310.825C124.435-316.078 112.172-320.635 99.677-324.472Z" stroke="#FFFFFF" stroke-width="1.72833" fill="#FFA319" fill-rule="evenodd" transform="matrix(1.01958 0 -0 1 561.119 658.501)"/><path d="M172.078-352.155C208.228-334.492 241.443-311.365 270.557-283.59L234.309-245.596C209.097-269.65 180.331-289.678 149.024-304.975Z" stroke="#FFFFFF" stroke-width="1.72833" fill="#930039" fill-rule="evenodd" transform="matrix(1.01958 0 -0 1 561.119 658.501)"/><text fill="#FFFFFF" font-family="Roboto,Roboto_MSFontService,sans-serif" font-weight="400" transform="matrix(1.76217 0 0 1.72833 760.066 366)">5%</text><path d="M270.557-283.59C279.01-275.526 287.099-267.086 294.799-258.298L255.303-223.693C248.635-231.303 241.63-238.612 234.309-245.596Z" stroke="#FFFFFF" stroke-width="1.72833" fill="#A7B893" fill-rule="evenodd" transform="matrix(1.01958 0 -0 1 561.119 658.501)"/><path d="M307.412-243.151C314.206-234.561 320.639-225.688 326.69-216.559L282.922-187.545C277.681-195.452 272.111-203.135 266.226-210.575Z" stroke="#FFFFFF" stroke-width="1.72833" fill="#930039" fill-rule="evenodd" transform="matrix(1.01958 0 -0 1 561.119 658.501)"/><path d="M363.101-147.586C364.843-143.302 366.507-138.988 368.097-134.645L318.781-116.606C317.405-120.367 315.964-124.103 314.455-127.813Z" stroke="#FFFFFF" stroke-width="1.72833" fill="#930039" fill-rule="evenodd" transform="matrix(1.01958 0 -0 1 561.119 658.501)"/><path d="M-374.722 114.923C-376.863 107.942-378.81 100.903-380.557 93.8133L-329.573 81.2447C-328.059 87.3843-326.374 93.4805-324.519 99.526Z" stroke="#FFFFFF" stroke-width="1.72833" fill="#D1D1D1" fill-rule="evenodd" transform="matrix(1.01958 0 -0 1 561.119 658.501)"/><path d="M-380.557 93.8133C-381.314 90.7414-382.035 87.6605-382.717 84.5711L-331.443 73.2406C-330.852 75.9161-330.228 78.5843-329.573 81.2447Z" stroke="#FFFFFF" stroke-width="1.72833" fill="#FFA319" fill-rule="evenodd" transform="matrix(1.01958 0 -0 1 561.119 658.501)"/><path d="M-382.717 84.5711C-383.295 81.957-383.846 79.337-384.37 76.7116L-332.874 66.4343C-332.419 68.7079-331.942 70.9768-331.443 73.2406Z" stroke="#FFFFFF" stroke-width="1.72833" fill="#A7B893" fill-rule="evenodd" transform="matrix(1.01958 0 -0 1 561.119 658.501)"/><path d="M-103.177-378.125C-99.4199-379.15-95.6481-380.12-91.8626-381.032L-79.5554-329.984C-82.8337-329.194-86.1001-328.354-89.3535-327.466Z" stroke="#FFFFFF" stroke-width="1.72833" fill="#A7B893" fill-rule="evenodd" transform="matrix(1.01958 0 -0 1 561.119 658.501)"/><path d="M2.68327e-14-438.212C12.7907-438.212 25.5752-437.652 38.317-436.534L34.2718-390.448C22.8752-391.449 11.4403-391.95-1.10165e-06-391.95Z" stroke="#FFFFFF" stroke-width="1.72833" fill="#A7B893" fill-rule="evenodd" transform="matrix(1.01958 0 -0 1 561.119 658.501)"/><path d="M38.317-436.534C42.9251-436.13 47.5264-435.653 52.1193-435.103L46.617-389.167C42.5089-389.66 38.3934-390.087 34.2718-390.448Z" stroke="#FFFFFF" stroke-width="1.72833" fill="#FFA319" fill-rule="evenodd" transform="matrix(1.01958 0 -0 1 561.119 658.501)"/><path d="M128.682-418.893C140.129-415.376 151.426-411.392 162.546-406.952L145.385-363.989C135.439-367.961 125.335-371.525 115.097-374.668Z" stroke="#FFFFFF" stroke-width="1.72833" fill="#930039" fill-rule="evenodd" transform="matrix(1.01958 0 -0 1 561.119 658.501)"/><path d="M162.546-406.952C166.589-405.336 170.608-403.661 174.602-401.926L156.168-359.494C152.596-361.046 149.001-362.544 145.385-363.989Z" stroke="#FFFFFF" stroke-width="1.72833" fill="#A7B893" fill-rule="evenodd" transform="matrix(1.01958 0 -0 1 561.119 658.501)"/><path d="M192.39-393.722C201.925-389.062 211.287-384.058 220.459-378.718L197.186-338.736C188.981-343.512 180.608-347.988 172.078-352.155Z" stroke="#FFFFFF" stroke-width="1.72833" fill="#FFA319" fill-rule="evenodd" transform="matrix(1.01958 0 -0 1 561.119 658.501)"/><path d="M220.459-378.718C224.929-376.119 229.35-373.438 233.723-370.681L209.049-331.546C205.136-334.013 201.182-336.41 197.186-338.736Z" stroke="#FFFFFF" stroke-width="1.72833" fill="#A7B893" fill-rule="evenodd" transform="matrix(1.01958 0 -0 1 561.119 658.501)"/><path d="M302.491-317.065C308.594-311.242 314.529-305.243 320.286-299.078L286.473-267.503C281.323-273.018 276.015-278.383 270.557-283.59Z" stroke="#FFFFFF" stroke-width="1.72833" fill="#930039" fill-rule="evenodd" transform="matrix(1.01958 0 -0 1 561.119 658.501)"/><path d="M320.286-299.078C322.514-296.691 324.716-294.28 326.89-291.843L292.381-261.034C290.435-263.212 288.466-265.369 286.473-267.503Z" stroke="#FFFFFF" stroke-width="1.72833" fill="#FFA319" fill-rule="evenodd" transform="matrix(1.01958 0 -0 1 561.119 658.501)"/><path d="M2.93938e-14-480.038C11.3278-480.038 22.6521-479.637 33.9516-478.835L30.9934-437.115C20.6785-437.848 10.3409-438.212-1.28919e-06-438.212Z" stroke="#FFFFFF" stroke-width="1.72833" fill="#930039" fill-rule="evenodd" transform="matrix(1.01958 0 -0 1 561.119 658.501)"/><path d="M41.9742-478.199C45.5373-477.886 49.097-477.534 52.6522-477.141L48.0646-435.57C44.8192-435.928 41.5697-436.249 38.317-436.534Z" stroke="#FFFFFF" stroke-width="1.72833" fill="#930039" fill-rule="evenodd" transform="matrix(1.01958 0 -0 1 561.119 658.501)"/><path d="M210.751-431.301C219.59-426.982 228.294-422.393 236.849-417.538L216.213-381.158C208.403-385.59 200.457-389.779 192.39-393.722Z" stroke="#FFFFFF" stroke-width="1.72833" fill="#930039" fill-rule="evenodd" transform="matrix(1.01958 0 -0 1 561.119 658.501)"/><path d="M241.502-414.866C245.624-412.467 249.71-410.006 253.758-407.484L231.649-371.981C227.952-374.283 224.222-376.528 220.459-378.72Z" stroke="#FFFFFF" stroke-width="1.72833" fill="#930039" fill-rule="evenodd" transform="matrix(1.01958 0 -0 1 561.119 658.501)"/><path d="M3.1749e-14-518.5C6.43922-518.5 12.8779-518.381 19.3126-518.141L17.88-479.705C11.9226-479.927 5.96156-480.038 1.50919e-07-480.038Z" stroke="#FFFFFF" stroke-width="1.72833" fill="#A7B893" fill-rule="evenodd" transform="matrix(1.01958 0 -0 1 561.119 658.501)"/><path d="M227.637-465.859C230.819-464.303 233.985-462.715 237.134-461.096L219.545-426.892C216.629-428.392 213.698-429.861 210.751-431.301Z" stroke="#FFFFFF" stroke-width="1.72833" fill="#FFA319" fill-rule="evenodd" transform="matrix(1.01958 0 -0 1 561.119 658.501)"/></g></g></g><g clip-path="url(#clip4)"><g clip-path="url(#clip5)"><g clip-path="url(#clip6)"><path d="M0 0 14.0825 0 14.0825 61.6108 0 61.6108Z" fill="#930039" transform="matrix(1.11133 0 -0 1 13 99.5807)"/><text fill="#930039" font-family="Roboto,Roboto_MSFontService,sans-serif" font-weight="700" transform="matrix(1.95627 0 0 1.76031 52.1255 137)">TRIT</text><path d="M0 0 14.0825 0 14.0825 61.6108 0 61.6108Z" fill="#A7B893" transform="matrix(1.11133 0 -0 1 13 161.191)"/><text fill="#A7B893" font-family="Roboto,Roboto_MSFontService,sans-serif" font-weight="700" transform="matrix(1.95627 0 0 1.76031 52.1255 199)">BIT</text><path d="M0 0 14.0825 0 14.0825 61.6108 0 61.6108Z" fill="#8191AC" transform="matrix(1.11133 0 -0 1 13 222.802)"/><text fill="#8191AC" font-family="Roboto,Roboto_MSFontService,sans-serif" font-weight="700" transform="matrix(1.95627 0 0 1.76031 52.1255 260)">QUADRIT OU <tspan x="72" y="0">+</tspan></text><path d="M0 0 14.0825 0 14.0825 61.6108 0 61.6108Z" fill="#FFA319" transform="matrix(1.11133 0 -0 1 13 284.413)"/><text fill="#FFA319" font-family="Roboto,Roboto_MSFontService,sans-serif" font-weight="700" transform="matrix(1.95627 0 0 1.76031 52.1255 322)">MONOT</text><path d="M0 0 14.0825 0 14.0825 61.6108 0 61.6108Z" fill="#D1D1D1" transform="matrix(1.11133 0 -0 1 13 346.024)"/><text fill="#D1D1D1" font-family="Roboto,Roboto_MSFontService,sans-serif" font-weight="700" transform="matrix(1.95627 0 0 1.76031 52.1255 383)">DRUG HOLIDAYS</text><path d="M0 0 14.0825 0 14.0825 61.6108 0 61.6108Z" transform="matrix(1.11133 0 -0 1 13 407.635)"/><text font-family="Roboto,Roboto_MSFontService,sans-serif" font-weight="700" transform="matrix(1.95627 0 0 1.76031 52.1255 445)">DÉCÈS</text></g></g></g><path d="M2.26701-1.96486 190.437 215.141 185.903 219.071-2.26701 1.96486ZM193.007 208.944 197.995 228.441 179.405 220.734Z" fill="#8FAADC" transform="matrix(1 0 0 -1.00072 677 528.605)"/><text fill="#8FAADC" font-family="San Francisco Display,San Francisco Display_MSFontService,sans-serif" font-weight="700" font-size="35" transform="matrix(0.646727 -0.763818 0.762174 0.647192 808.523 347)">Patient<tspan x="123.312" y="0.290207">2</tspan></text><path d="M2.6908e-06-3 167.827-2.99985 167.827 3.00015-2.6908e-06 3ZM164.827-8.99985 182.827 0.000163984 164.827 9.00015Z" fill="#548235" transform="matrix(1 0 -0 1.00072 731 637)"/><text fill="#548235" font-family="San Francisco Display,San Francisco Display_MSFontService,sans-serif" font-weight="700" font-size="35" transform="matrix(1 0 0 1.00072 849.598 623)">Patient 1<tspan fill="#000000" font-family="San Francisco Text,San Francisco Text_MSFontService,sans-serif" font-size="38" x="-836.045" y="-542.61">Légende</tspan><tspan fill="#000000" font-family="San Francisco Text,San Francisco Text_MSFontService,sans-serif" font-size="38" x="-527.453" y="-550.604">Sunburst représentant les </tspan><tspan fill="#000000" font-family="San Francisco Text,San Francisco Text_MSFontService,sans-serif" font-size="38" x="-527.058" y="-505.637">séquences de traitements</tspan><tspan fill="#930039" font-family="San Francisco Text,San Francisco Text_MSFontService,sans-serif" font-size="33" x="-813.826" y="-482.653">Traitement A</tspan><tspan fill="#A7B893" font-family="San Francisco Text,San Francisco Text_MSFontService,sans-serif" font-size="33" x="-814.115" y="-419.698">Traitement B</tspan><tspan fill="#8191AC" font-family="San Francisco Text,San Francisco Text_MSFontService,sans-serif" font-size="33" x="-811.159" y="-357.743">Traitement C</tspan><tspan fill="#FFA319" font-family="San Francisco Text,San Francisco Text_MSFontService,sans-serif" font-size="33" x="-811.159" y="-296.787">Traitement D</tspan><tspan fill="#D1D1D1" font-family="San Francisco Text,San Francisco Text_MSFontService,sans-serif" font-size="33" x="-811.159" y="-234.831">Traitement E</tspan><tspan fill="#000000" font-family="San Francisco Text,San Francisco Text_MSFontService,sans-serif" font-size="33" x="-809.277" y="-175.874">Décès</tspan></text></g></svg>