<?xml version="1.0" standalone="no"?>
<!DOCTYPE svg PUBLIC "-//W3C//DTD SVG 1.1//EN" "http://www.w3.org/Graphics/SVG/1.1/DTD/svg11.dtd" >
<svg xmlns="http://www.w3.org/2000/svg" xmlns:xlink="http://www.w3.org/1999/xlink" version="1.1">
<metadata>
Created by FontForge 20170731 at Mon Jan  8 18:59:44 2018
 By Aleksey,,,
(c) 2014 Apple Inc. All rights reserved.
</metadata>
<defs>
<font id="SanFranciscoText-MediumItalic" horiz-adv-x="1155" >
  <font-face 
    font-family="San Francisco Text Medium Italic"
    font-weight="490"
    font-style="italic"
    font-stretch="normal"
    units-per-em="2048"
    panose-1="2 1 6 4 3 2 2 6 2 4"
    ascent="1638"
    descent="-410"
    x-height="1056"
    cap-height="1366"
    bbox="-169 -482 2171 1868"
    underline-thickness="50"
    underline-position="-200"
    slope="-10"
    unicode-range="U+0020-2212"
  />
<missing-glyph horiz-adv-x="1293" 
d="M55 0l241 1365h1053l-241 -1365h-1053zM508 303q0 -44 31 -72t80 -28q52 0 84.5 29t32.5 74q0 46 -31.5 74.5t-82.5 28.5q-50 0 -82 -29.5t-32 -76.5zM429 908h152q9 54 47.5 88.5t102.5 34.5q59 0 99.5 -29.5t40.5 -81.5q0 -22 -9 -41.5t-18 -31.5t-32.5 -29t-32.5 -22
t-38 -22q-84 -47 -120.5 -93.5t-45.5 -127.5l-6 -42h150l7 39q1 15 5.5 28t8 22t14.5 20.5t15 16.5t21 16t21 13.5t26.5 15.5t26.5 15q36 20 62 39t52.5 47t40.5 65t14 81q0 113 -85 174t-212 61q-140 0 -219 -72.5t-88 -183.5z" />
    <glyph glyph-name=".notdef" horiz-adv-x="1293" 
d="M55 0l241 1365h1053l-241 -1365h-1053zM508 303q0 -44 31 -72t80 -28q52 0 84.5 29t32.5 74q0 46 -31.5 74.5t-82.5 28.5q-50 0 -82 -29.5t-32 -76.5zM429 908h152q9 54 47.5 88.5t102.5 34.5q59 0 99.5 -29.5t40.5 -81.5q0 -22 -9 -41.5t-18 -31.5t-32.5 -29t-32.5 -22
t-38 -22q-84 -47 -120.5 -93.5t-45.5 -127.5l-6 -42h150l7 39q1 15 5.5 28t8 22t14.5 20.5t15 16.5t21 16t21 13.5t26.5 15.5t26.5 15q36 20 62 39t52.5 47t40.5 65t14 81q0 113 -85 174t-212 61q-140 0 -219 -72.5t-88 -183.5z" />
    <glyph glyph-name=".null" horiz-adv-x="0" 
 />
    <glyph glyph-name="nonmarkingreturn" horiz-adv-x="0" 
 />
    <glyph glyph-name="space" unicode=" " horiz-adv-x="461" 
 />
    <glyph glyph-name="exclam" unicode="!" horiz-adv-x="644" 
d="M380 1366h225l-199 -937h-160zM133 125q0 65 43 107t109 42q67 0 110.5 -41t43.5 -105t-44 -105t-112 -41q-65 0 -107.5 40.5t-42.5 102.5z" />
    <glyph glyph-name="quotedbl" unicode="&#x22;" horiz-adv-x="1039" 
d="M374 1366h224l-120 -525h-166zM793 1366h223l-120 -525h-165z" />
    <glyph glyph-name="numbersign" unicode="#" horiz-adv-x="1255" 
d="M1256 836h-211l-109 -289h200l-50 -168h-201q-18 -45 -65.5 -186t-69.5 -193h-164l134 379h-262q-19 -47 -67 -187.5t-69 -191.5h-164l134 379h-201l50 168h203l109 289h-193l50 168h194l130 362h165l-131 -362h264l125 362h164l-130 -362h214zM618 836l-109 -289h263
l108 289h-262z" />
    <glyph glyph-name="dollar" unicode="$" 
d="M387 -129l27 126q-154 34 -239 128.5t-85 217.5q0 24 1 34h175q-2 -10 -2 -13q0 -67 50 -125t134 -83l105 476q-20 7 -45 18q-287 121 -287 356q0 118 64 207t169 133.5t234 44.5q26 0 30 -1l26 123h130l-31 -142q131 -33 211.5 -119.5t80.5 -219.5q0 -2 -1 -12v-10h-163
q1 10 0 22q-7 64 -51 111.5t-111 70.5l-99 -440q3 -1 16.5 -7t17.5 -7q64 -26 108 -48t89.5 -54.5t73 -69t44.5 -88t17 -113.5q-1 -192 -141 -300t-364 -108q-22 0 -33 1l-23 -109h-128zM894 364q0 81 -53.5 130t-157.5 90q-4 1 -12 5l-100 -455h15q136 0 222 62.5t86 167.5
zM409 1018q0 -67 41.5 -110.5t126.5 -80.5q5 -3 15 -7l93 416h-11q-66 0 -124.5 -23t-99.5 -74t-41 -121z" />
    <glyph glyph-name="percent" unicode="%" horiz-adv-x="1519" 
d="M129 1055l5 35q19 128 99 207t196 79q118 0 186 -82.5t68 -211.5q0 -44 -6 -80l-5 -35q-19 -125 -99 -207t-199 -82t-185.5 81.5t-66.5 213.5q0 44 7 82zM1096 377l-3 -28q-6 -33 -6 -69q0 -71 30 -114.5t89 -43.5q61 0 101 46.5t51 128.5l4 33q5 37 5 62q0 73 -29 118
t-88 45q-61 0 -101.5 -48.5t-52.5 -129.5zM272 1065l-4 -27q-5 -37 -5 -70q0 -70 29.5 -114t88.5 -44q61 0 101 46.5t51 128.5l5 33q4 44 4 63q0 72 -29.5 117.5t-87.5 45.5q-61 0 -101 -48.5t-52 -130.5zM953 367l5 35q20 128 100 207t196 79q118 0 186 -82.5t68 -211.5
q0 -40 -7 -80l-5 -36q-18 -125 -98.5 -206.5t-199.5 -81.5t-185 81.5t-66 213.5q0 41 6 82zM340 0h-172l563 683l562 683h173l-563 -683z" />
    <glyph glyph-name="ampersand" unicode="&#x26;" horiz-adv-x="1406" 
d="M1155 748h179q-12 -102 -22 -153q-20 -105 -65 -194.5t-123 -177.5l156 -223l-221 -1l-73 104q-183 -121 -401 -121q-112 0 -201.5 31t-145.5 84t-85.5 122t-29.5 148q0 78 29.5 143t85 114.5t114.5 84t139 69.5l27 12q-61 94 -91 162.5t-30 140.5q0 142 107.5 223.5
t262.5 81.5q157 0 252 -80.5t95 -206.5q0 -53 -17.5 -100.5t-45.5 -83t-71.5 -68.5t-85.5 -56.5t-96 -48.5q-1 -1 -9.5 -5t-17.5 -8.5t-10 -4.5l264 -365q87 117 113 256q13 53 17 121zM600 147q82 0 161 25t134 71l-293 415l-22 -9q-258 -109 -258 -271q0 -92 70.5 -161.5
t207.5 -69.5zM582 1080q0 -89 97 -220q1 1 10.5 4.5t10.5 3.5q234 93 234 232q0 66 -50 102.5t-121 36.5q-74 0 -127.5 -41.5t-53.5 -117.5z" />
    <glyph glyph-name="quotesingle" unicode="'" horiz-adv-x="621" 
d="M374 1366h224l-120 -525h-166z" />
    <glyph glyph-name="parenleft" unicode="(" horiz-adv-x="701" 
d="M584 1364h188q-43 -38 -88 -90t-101 -142.5t-99 -193.5t-74.5 -247t-35.5 -298q-9 -219 23.5 -368t101.5 -289h-190q-68 125 -109.5 290.5t-31.5 350.5q5 182 45 345.5t103 284t129 207t139 150.5z" />
    <glyph glyph-name="parenright" unicode=")" horiz-adv-x="699" 
d="M265 1364h188q161 -299 144 -629q-5 -182 -45.5 -348t-103.5 -289t-129.5 -212t-137.5 -150h-189q45 44 89 97t101 145.5t99.5 195t73.5 247t35 298.5q10 217 -23.5 367.5t-101.5 277.5z" />
    <glyph glyph-name="asterisk" unicode="*" horiz-adv-x="984" 
d="M888 678l-238 217l-20 -319l-149 22l68 311l-288 -144l-57 148l307 94l-268 175l93 125l238 -219l21 321l149 -22l-70 -313l289 146l57 -148l-308 -93l269 -176z" />
    <glyph glyph-name="plus" unicode="+" horiz-adv-x="1181" 
d="M1094 459h-399l-78 -437h-177l77 437h-399l30 180h399l75 420h177l-74 -420h400z" />
    <glyph glyph-name="comma" unicode="," horiz-adv-x="544" 
d="M121 -400h-172l255 606h243z" />
    <glyph glyph-name="hyphen" unicode="-" horiz-adv-x="867" 
d="M768 466h-632l31 193h633z" />
    <glyph glyph-name="period" unicode="." horiz-adv-x="563" 
d="M87 134q0 69 43.5 112.5t106.5 43.5q67 0 110.5 -43.5t43.5 -112.5q0 -67 -43.5 -109.5t-110.5 -42.5q-63 0 -106.5 43t-43.5 109z" />
    <glyph glyph-name="slash" unicode="/" horiz-adv-x="736" 
d="M124 -284h-186l728 1704h187z" />
    <glyph glyph-name="zero" unicode="0" horiz-adv-x="1233" 
d="M402 774l-17 -104q-16 -84 -16 -172q0 -165 60 -250.5t173 -85.5q129 0 216 108t124 320l16 105q17 94 17 177q0 152 -61.5 242t-176.5 90q-249 0 -335 -430zM185 706l15 93q45 276 183 434.5t356 158.5q206 0 321 -139t115 -404q0 -103 -16 -190l-17 -94
q-24 -132 -68.5 -238t-110 -186.5t-157.5 -124t-203 -43.5q-207 0 -320.5 136.5t-113.5 398.5q0 106 16 198z" />
    <glyph glyph-name="one" unicode="1" horiz-adv-x="959" 
d="M596 0h-210l207 1152h-14l-326 -184l31 210l336 188h216z" />
    <glyph glyph-name="two" unicode="2" horiz-adv-x="1152" 
d="M435 1007h-194v14q6 160 129 267t317 107q184 0 298.5 -99t114.5 -264q0 -68 -20.5 -130.5t-63 -121.5t-86 -105.5t-110.5 -108.5l-401 -368l-3 -14h608l-31 -184h-894l26 159l562 532q48 45 77 75.5t64.5 75t53 88.5t17.5 87q0 79 -58.5 137t-163.5 58t-169.5 -58.5
t-71.5 -141.5z" />
    <glyph glyph-name="three" unicode="3" horiz-adv-x="1159" 
d="M477 627l28 179q65 -3 102 -3q124 0 210.5 57t85.5 161q0 91 -67 143.5t-167 52.5q-94 0 -149.5 -43.5t-70.5 -106.5h-199q14 147 130 237.5t296 90.5q81 0 154.5 -20t135 -60t98 -108t37.5 -156q0 -75 -26.5 -138t-70 -103.5t-96.5 -65t-109 -29.5l-2 -14
q119 -26 185 -111t65 -208q0 -123 -64.5 -216.5t-175 -142t-248.5 -48.5q-203 0 -329.5 101t-126.5 253q0 22 4 46h197q-1 -6 -1 -22q0 -75 73 -134t189 -59q118 0 195 63.5t77 166.5q0 104 -77 167.5t-193 67.5z" />
    <glyph glyph-name="four" unicode="4" horiz-adv-x="1237" 
d="M833 1366h302l-158 -909h200l-28 -182h-201l-50 -275h-197l50 275h-646l26 186q94 138 227.5 312t219 280t255.5 313zM337 457h444l133 725h-14q-14 -17 -78.5 -97t-86.5 -107.5t-78.5 -97.5t-87 -109.5t-76 -98t-82.5 -108.5t-72 -98z" />
    <glyph glyph-name="five" unicode="5" horiz-adv-x="1184" 
d="M151 372h189q-2 -14 -2 -20q0 -73 65.5 -134.5t178.5 -61.5q132 0 220.5 87.5t88.5 224.5q0 119 -69 186.5t-178 67.5q-68 0 -133 -26.5t-102 -75.5h-193l178 746h746l-27 -185h-572l-100 -394h15q38 48 111.5 75t151.5 27q162 0 268 -111t107 -299q0 -104 -35 -196
t-100 -160.5t-164 -108.5t-218 -40q-107 0 -192.5 31.5t-135.5 82t-76.5 109t-26.5 118.5q0 30 5 57z" />
    <glyph glyph-name="six" unicode="6" horiz-adv-x="1200" 
d="M624 -14q-214 0 -332.5 145t-118.5 396q0 279 88 487q165 372 516 372q90 0 166 -29t125 -77t76 -106.5t28 -118.5q0 -17 -1 -24h-185q-8 72 -70 121t-152 49q-146 0 -244.5 -127.5t-126.5 -344.5h15q37 64 109.5 109.5t181.5 45.5q165 0 280 -111.5t115 -298.5
q0 -212 -131.5 -350t-338.5 -138zM639 719q-117 0 -188.5 -80t-71.5 -197q0 -119 69.5 -199t180.5 -80q120 0 190.5 84.5t70.5 216.5q0 116 -71 185.5t-180 69.5z" />
    <glyph glyph-name="seven" unicode="7" horiz-adv-x="1122" 
d="M243 1366h892l-22 -176l-752 -1190h-230l751 1167l2 14h-666z" />
    <glyph glyph-name="eight" unicode="8" horiz-adv-x="1224" 
d="M876 706q46 -14 86.5 -39.5t77.5 -64.5t59 -98t22 -129q0 -97 -41.5 -175t-112 -126t-158 -73.5t-184.5 -25.5q-72 0 -140 13.5t-132 44t-112 74t-76.5 109.5t-28.5 145q0 69 22.5 128t58.5 100t83.5 71t95 46.5t94.5 21.5l3 15q-197 102 -197 291q0 110 62 193.5
t161.5 125.5t219.5 42q115 0 210.5 -39t156.5 -119.5t61 -189.5q0 -136 -88 -224t-200 -102zM625 147q123 0 206.5 69t83.5 181q0 111 -83 174.5t-196 63.5q-121 0 -204 -72.5t-83 -183.5q0 -110 80.5 -171t195.5 -61zM724 804q104 0 173 62.5t69 159.5q0 95 -64.5 148.5
t-159.5 53.5q-105 0 -174 -64t-69 -159q0 -92 64.5 -146.5t160.5 -54.5z" />
    <glyph glyph-name="nine" unicode="9" horiz-adv-x="1194" 
d="M692 1389q209 0 326.5 -135.5t117.5 -386.5q0 -208 -50 -396q-131 -484 -524 -484q-175 0 -292 97.5t-120 235.5q-2 14 0 28h190q2 -78 68.5 -127t166.5 -49q140 0 229 123.5t121 354.5h-13q-31 -62 -108.5 -109.5t-183.5 -47.5q-105 0 -194 47.5t-145.5 143t-56.5 222.5
q0 204 131.5 343.5t336.5 139.5zM675 660q119 0 189.5 80.5t70.5 196.5q0 120 -68 196.5t-178 76.5q-113 0 -185 -85t-72 -211q0 -114 68 -184t175 -70z" />
    <glyph glyph-name="colon" unicode=":" horiz-adv-x="567" 
d="M208 804q0 68 43.5 112t106.5 44q67 0 111 -44t44 -112q0 -67 -44 -110t-111 -43q-63 0 -106.5 43.5t-43.5 109.5zM88 134q0 69 43.5 112.5t106.5 43.5q67 0 111 -43.5t44 -112.5q0 -67 -44 -109.5t-111 -42.5q-63 0 -106.5 43t-43.5 109z" />
    <glyph glyph-name="semicolon" unicode=";" horiz-adv-x="557" 
d="M92 -400h-172l255 606h243zM239 804q0 69 43.5 112.5t106.5 43.5q67 0 110.5 -44t43.5 -112q0 -67 -44 -110t-110 -43q-63 0 -106.5 43t-43.5 110z" />
    <glyph glyph-name="less" unicode="&#x3c;" horiz-adv-x="1095" 
d="M183 431l27 162l835 521l-38 -228l-634 -371l-2 -11l512 -340l-36 -217z" />
    <glyph glyph-name="equal" unicode="=" horiz-adv-x="1185" 
d="M1009 258h-868l28 180h865zM1073 661h-864l30 181h864z" />
    <glyph glyph-name="greater" unicode="&#x3e;" horiz-adv-x="1095" 
d="M962 591l-26 -157l-833 -487l37 226l634 347l2 12l-507 363l36 205z" />
    <glyph glyph-name="question" unicode="?" horiz-adv-x="1056" 
d="M329 125q0 65 43 107t109 42q67 0 110 -41t43 -105t-43.5 -105t-112.5 -41q-64 0 -106.5 40.5t-42.5 102.5zM223 1033q8 75 38 139.5t81.5 115t130.5 79t178 28.5q115 0 207.5 -36.5t151 -115.5t58.5 -189q0 -66 -21 -121t-61.5 -97.5t-77.5 -69.5t-92 -59
q-100 -58 -129 -83q-54 -48 -65 -128l-11 -63h-190l12 67q15 118 64.5 182.5t173.5 135.5q40 23 57.5 33.5t50 34.5t47.5 43.5t28 50t13 63.5q0 83 -63.5 129t-156.5 46q-98 0 -157 -52t-73 -133h-194z" />
    <glyph glyph-name="at" unicode="@" horiz-adv-x="1737" 
d="M1058 275h9q12 -58 74.5 -99t145.5 -41q140 0 244.5 98.5t137.5 283.5l9 50q8 43 8 127q0 128 -49.5 241t-139.5 197t-226 133t-299 49q-200 0 -366 -79t-280 -234.5t-153 -367.5l-10 -56q-16 -94 -16 -169q0 -166 55.5 -297t155 -215t234 -127.5t294.5 -43.5
q122 0 199 23l23 135q-68 -22 -199 -22q-134 0 -244.5 34.5t-192.5 101.5t-127 175t-45 247q0 72 13 148l8 43q33 176 127.5 305t229.5 195t295 66q158 0 285.5 -57.5t204 -170.5t76.5 -264q0 -65 -7 -107l-6 -33q-23 -145 -84 -214.5t-138 -69.5q-46 0 -76 26.5t-30 70.5
q0 19 3 33l82 471h-153l-22 -131h-8q-7 62 -60.5 108t-139.5 46q-118 0 -197.5 -79.5t-105.5 -220.5l-16 -87q-8 -41 -8 -95q0 -119 70.5 -192.5t182.5 -73.5q89 0 147.5 39.5t84.5 99.5zM745 497l12 59q20 95 64.5 141.5t105.5 46.5q68 0 106.5 -46t38.5 -109q0 -21 -5 -53
l-14 -81q-16 -93 -60.5 -137t-108.5 -44q-71 0 -108.5 42.5t-37.5 108.5q0 37 7 72z" />
    <glyph glyph-name="A" unicode="A" horiz-adv-x="1270" 
d="M-22 0l714 1366h235l234 -1366h-217l-59 383h-491l-197 -383h-219zM779 1131h-14l-291 -577h390z" />
    <glyph glyph-name="B" unicode="B" horiz-adv-x="1291" 
d="M119 0l241 1366h481q85 0 153 -17t111.5 -46t72.5 -69t41 -83t12 -91q0 -130 -83.5 -222t-193.5 -116l-2 -12q110 -19 177.5 -96.5t67.5 -201.5q0 -193 -148 -302.5t-409 -109.5h-521zM537 1193l-73 -403h257q129 0 211.5 62.5t82.5 172.5q0 86 -59 127t-184 41h-235z
M435 621l-81 -447h291q150 0 245.5 65.5t95.5 181.5q0 95 -69.5 147.5t-215.5 52.5h-266z" />
    <glyph glyph-name="C" unicode="C" horiz-adv-x="1303" 
d="M421 841l-37 -179q-13 -69 -13 -151q0 -168 91.5 -254t235.5 -86q129 0 207.5 62.5t98.5 158.5h202q-3 -27 -7 -41q-13 -71 -49.5 -135.5t-98 -120.5t-157 -89t-212.5 -33q-86 0 -163 20t-143 63t-113.5 105t-74.5 151.5t-27 197.5q0 84 9 140l45 228q47 247 199.5 381
t373.5 134q114 0 210 -35.5t158.5 -95t97 -134.5t34.5 -156q0 -40 -4 -54h-199v11.5v15v11.5q-4 44 -24 85t-55 77t-93 57.5t-129 21.5q-290 0 -363 -356z" />
    <glyph glyph-name="D" unicode="D" horiz-adv-x="1365" 
d="M360 1366h409q262 0 403.5 -142.5t141.5 -381.5q0 -79 -11 -146q-6 -53 -27 -148q-51 -267 -240.5 -407.5t-508.5 -140.5h-408zM536 1178l-177 -990h161q223 0 366.5 95.5t182.5 286.5q0 1 12 64t12 69q9 45 9 123q0 177 -101 264.5t-295 87.5h-170z" />
    <glyph glyph-name="E" unicode="E" horiz-adv-x="1146" 
d="M983 188l-31 -188h-833l241 1366h830l-31 -188h-623l-71 -390h590l-30 -178h-590l-78 -422h626z" />
    <glyph glyph-name="F" unicode="F" horiz-adv-x="1121" 
d="M326 0h-207l242 1366h829l-31 -188h-621l-78 -424h571l-31 -184h-570z" />
    <glyph glyph-name="G" unicode="G" horiz-adv-x="1358" 
d="M215 881q47 245 202.5 378.5t383.5 133.5q123 0 223 -37.5t160.5 -98.5t93 -133.5t32.5 -148.5q0 -25 -3 -35h-201v27q-2 30 -13.5 60.5t-35.5 62t-58 55.5t-86.5 39.5t-115.5 15.5q-151 0 -246.5 -92.5t-130.5 -265.5l-37 -184q-14 -70 -14 -149q0 -170 93 -257.5
t239 -87.5q119 0 212 58.5t112 160.5l30 157h-327l29 170h528l-59 -332q-33 -188 -181.5 -296.5t-356.5 -108.5q-108 0 -200.5 31t-167.5 93t-118 166.5t-43 240.5q0 93 12 153z" />
    <glyph glyph-name="H" unicode="H" horiz-adv-x="1430" 
d="M327 0h-208l241 1366h207l-100 -569h646l100 569h209l-241 -1366h-208l109 609h-646z" />
    <glyph glyph-name="I" unicode="I" horiz-adv-x="576" 
d="M326 0h-207l241 1366h207z" />
    <glyph glyph-name="J" unicode="J" horiz-adv-x="1048" 
d="M1041 1366l-175 -992q-37 -208 -149 -304t-272 -96q-172 0 -284.5 96t-112.5 252q0 39 7 67h194q-1 -16 -1 -34q0 -77 52.5 -127.5t141.5 -50.5q83 0 141 53t79 169l172 967h207z" />
    <glyph glyph-name="K" unicode="K" horiz-adv-x="1295" 
d="M568 1366l-120 -643h14l687 643h259l-637 -612l405 -754h-238l-330 630l-201 -178l-81 -452h-207l241 1366h208z" />
    <glyph glyph-name="L" unicode="L" horiz-adv-x="1056" 
d="M966 191l-31 -191h-816l241 1366h207l-209 -1175h608z" />
    <glyph glyph-name="M" unicode="M" horiz-adv-x="1647" 
d="M312 0h-193l241 1366h204l260 -913h9l581 913h225l-241 -1366h-193l174 970h-12l-519 -802h-125l-227 802h-12z" />
    <glyph glyph-name="N" unicode="N" horiz-adv-x="1429" 
d="M1179 0h-187l-481 998h-11l-180 -998h-201l241 1366h189l476 -998h12l181 998h202z" />
    <glyph glyph-name="O" unicode="O" horiz-adv-x="1390" 
d="M419 842l-34 -180q-14 -82 -14 -149q0 -159 91 -252t253 -93q149 0 243.5 93.5t127.5 278.5l35 192q8 43 8 128q0 154 -92 247t-250 93q-142 0 -237.5 -87t-130.5 -271zM175 676l37 205q43 243 199.5 377.5t381.5 134.5q247 0 397.5 -143t150.5 -392q0 -88 -15 -163
l-38 -206q-46 -249 -196 -382.5t-400 -133.5q-232 0 -381.5 137.5t-149.5 376.5q0 115 14 189z" />
    <glyph glyph-name="P" unicode="P" horiz-adv-x="1208" 
d="M326 0h-207l241 1366h459q195 0 303.5 -103.5t108.5 -270.5q0 -38 -7 -90q-28 -199 -167 -306.5t-390 -107.5h-254zM777 1186h-240l-93 -511h235q164 0 244 65t94 171q5 33 5 66q0 96 -60.5 152.5t-184.5 56.5z" />
    <glyph glyph-name="Q" unicode="Q" horiz-adv-x="1406" 
d="M175 680l36 196q43 243 199 380t380 137q247 0 397.5 -143.5t150.5 -396.5q0 -80 -15 -163l-37 -197q-51 -276 -233 -406l132 -227h-213l-85 138q-87 -25 -195 -25q-152 0 -271 59t-190 178t-71 282q0 99 15 188zM851 406l91 -147q106 86 141 273l37 201q8 45 8 132
q0 154 -92.5 245.5t-249.5 91.5q-142 0 -238 -88.5t-130 -270.5l-35 -185q-15 -80 -15 -155q0 -161 92 -252t254 -91q33 0 77 7l-145 239h205z" />
    <glyph glyph-name="R" unicode="R" horiz-adv-x="1282" 
d="M327 0h-208l241 1366h476q196 0 301.5 -98t105.5 -263q0 -38 -5 -78q-18 -140 -104 -235t-212 -133l186 -559h-220l-170 528q-16 -1 -66 -1h-231zM786 1183h-249l-87 -477h243q297 0 330 227q4 36 4 61q0 90 -59 139.5t-182 49.5z" />
    <glyph glyph-name="S" unicode="S" horiz-adv-x="1226" 
d="M113 392h200q-2 -14 -2 -23q0 -86 84 -149.5t219 -63.5q126 0 205.5 57.5t79.5 154.5q0 44 -17.5 77.5t-54 58.5t-71.5 40.5t-92 35.5l-72 27q-74 26 -131 56.5t-111.5 76t-84.5 110.5t-30 144q0 185 137.5 292t344.5 107q189 0 321.5 -100.5t132.5 -263.5q0 -3 -1 -19
t-1 -17h-193v2q0 2 0.5 6t0.5 8q0 91 -76.5 145.5t-185.5 54.5q-107 0 -186 -51t-79 -144q0 -76 62 -125t180 -92l89 -34q60 -22 101.5 -41t88.5 -50.5t75.5 -67t47.5 -89t19 -118.5q0 -198 -141.5 -311t-366.5 -113q-216 0 -356 107t-140 267q0 26 4 45z" />
    <glyph glyph-name="T" unicode="T" horiz-adv-x="1126" 
d="M601 0h-207l210 1176h-410l31 190h1025l-30 -190h-409z" />
    <glyph glyph-name="U" unicode="U" horiz-adv-x="1384" 
d="M553 1366l-145 -825q-8 -34 -8 -92q0 -125 78.5 -200.5t215.5 -75.5q126 0 213.5 71.5t112.5 213.5l161 908h211l-166 -944q-39 -222 -183 -335.5t-356 -113.5q-220 0 -361 118t-141 326q0 45 13 131l144 818h211z" />
    <glyph glyph-name="V" unicode="V" horiz-adv-x="1259" 
d="M684 0h-236l-235 1366h225l158 -1124h12l560 1124h229z" />
    <glyph glyph-name="W" unicode="W" horiz-adv-x="1793" 
d="M537 0h-209l-87 1366h219l31 -1057h12l471 1057h181l103 -1057h12l415 1057h219l-569 -1366h-204l-116 1011h-11z" />
    <glyph glyph-name="X" unicode="X" horiz-adv-x="1242" 
d="M1127 1366l-430 -521l-10 1l-235 520h-235l319 -677l-558 -689h244l418 524l10 -1l254 -523h232l-336 682l575 684h-248z" />
    <glyph glyph-name="Y" unicode="Y" horiz-adv-x="1154" 
d="M718 552l-98 -552h-208l98 548l-326 818h220l232 -612h11l438 612h236z" />
    <glyph glyph-name="Z" unicode="Z" horiz-adv-x="1214" 
d="M80 0l26 158l873 1007l2 14h-694l31 187h946l-24 -163l-871 -1003l-3 -14h722l-31 -186h-977z" />
    <glyph glyph-name="bracketleft" unicode="[" horiz-adv-x="710" 
d="M323 1366h464l-26 -161h-272l-229 -1272h286l-28 -162h-476z" />
    <glyph glyph-name="backslash" unicode="\" horiz-adv-x="661" 
d="M606 -284h-187l-218 1704h186z" />
    <glyph glyph-name="bracketright" unicode="]" horiz-adv-x="710" 
d="M275 1366h464l-282 -1595h-477l27 162h284l229 1272h-272z" />
    <glyph glyph-name="asciicircum" unicode="^" horiz-adv-x="851" 
d="M856 798h-176l-106 393h-11l-250 -393h-181l366 568h190z" />
    <glyph glyph-name="underscore" unicode="_" horiz-adv-x="961" 
d="M840 -261h-920l31 169h921z" />
    <glyph glyph-name="grave" unicode="`" horiz-adv-x="1000" 
d="M789 1216h-155l-247 354h208z" />
    <glyph glyph-name="a" unicode="a" horiz-adv-x="1116" 
d="M414 -17q-135 0 -226 80t-91 217q0 22 2 36q11 143 121 223.5t306 80.5h276l11 67q3 30 3 44q0 71 -50 121t-156 50q-85 0 -137.5 -32t-69.5 -84h-195q22 125 131.5 206.5t284.5 81.5q185 0 286 -91t101 -246q0 -52 -18 -146l-104 -591h-194l25 140h-12
q-33 -64 -109.5 -110.5t-184.5 -46.5zM300 303q0 -67 48 -109.5t131 -42.5q100 0 178 56.5t94 143.5l22 123h-245q-111 0 -169.5 -49t-58.5 -122z" />
    <glyph glyph-name="b" unicode="b" horiz-adv-x="1208" 
d="M665 -17q-120 0 -206 67.5t-105 155.5h-13l-36 -206h-203l253 1423h204l-98 -543h14q15 35 38 65.5t58.5 60.5t88.5 47.5t117 17.5q164 0 263 -106t99 -287q0 -80 -9 -131l-31 -167q-31 -180 -143 -288.5t-291 -108.5zM394 433q0 -83 36.5 -145t90.5 -91t115 -29
q109 0 180 73t92 188l25 133q4 24 4 88q0 114 -63 179.5t-174 65.5t-184.5 -76t-94.5 -203l-22 -129q-5 -24 -5 -54z" />
    <glyph glyph-name="c" unicode="c" horiz-adv-x="1079" 
d="M127 394q0 74 13 148l24 136q34 194 158 295t307 101q185 0 297.5 -97.5t112.5 -248.5q0 -17 -1 -20h-195q1 4 1 12q0 67 -57.5 122.5t-158.5 55.5q-103 0 -175.5 -67.5t-94.5 -191.5l-20 -113q-10 -51 -10 -102q0 -123 60 -192t178 -69q87 0 143 35.5t70 91.5h199
q-23 -145 -139.5 -227t-283.5 -82q-195 0 -311.5 112t-116.5 301z" />
    <glyph glyph-name="d" unicode="d" horiz-adv-x="1211" 
d="M605 1071q127 0 210 -69t96 -150h14l98 571h205l-250 -1423h-201l31 175h-14q-24 -72 -102 -131t-198 -59q-165 0 -268 109.5t-103 289.5q0 69 11 131l34 165q33 178 146 284.5t291 106.5zM882 634q0 123 -73.5 191.5t-172.5 68.5q-109 0 -178.5 -71.5t-93.5 -190.5
l-27 -131q-6 -32 -6 -85q0 -114 64.5 -182t176.5 -68q111 0 184.5 76t95.5 204l24 130q6 37 6 58z" />
    <glyph glyph-name="e" unicode="e" horiz-adv-x="1110" 
d="M542 -19q-186 0 -302 106.5t-116 303.5q0 70 17 155l24 131q33 190 161.5 293.5t314.5 103.5q113 0 197.5 -39.5t129.5 -104.5t63 -143t7 -162q0 -2 -5.5 -33t-12.5 -68.5t-8 -44.5h-684q-9 -36 -9 -88q0 -100 57.5 -167t179.5 -67q88 0 146.5 35.5t74.5 89.5h198
q-9 -57 -43.5 -110.5t-88.5 -96t-132.5 -68.5t-168.5 -26zM842 624q3 9 3 21q20 110 -36 184.5t-174 74.5q-96 0 -169 -55.5t-97 -164.5l-13 -60h486z" />
    <glyph glyph-name="f" unicode="f" horiz-adv-x="768" 
d="M165 0l155 869h-169l28 170h171l11 74q25 166 118.5 244.5t265.5 78.5q73 0 128 -11l-28 -160q-30 7 -92 7q-88 0 -131.5 -38.5t-59.5 -118.5l-14 -76h240l-29 -170h-238l-153 -869h-203z" />
    <glyph glyph-name="g" unicode="g" horiz-adv-x="1211" 
d="M602 1071q124 0 206 -61t107 -155h13l36 200h201l-186 -1058q-70 -394 -493 -394q-190 0 -303.5 91.5t-113.5 217.5v16h195q0 -10 1 -12q2 -56 67.5 -98.5t163.5 -42.5q130 0 199 65.5t93 195.5l27 151h-14q-30 -73 -106.5 -119.5t-187.5 -46.5q-155 0 -264.5 109.5
t-109.5 293.5q0 74 13 144l22 103q39 199 158 299.5t276 100.5zM880 639q0 117 -68.5 186.5t-177.5 69.5q-106 0 -176.5 -73t-94.5 -201l-15 -77q-12 -60 -12 -102q0 -123 66 -190t181 -67q102 0 176 74t96 199l16 86q9 51 9 95z" />
    <glyph glyph-name="h" unicode="h" horiz-adv-x="1215" 
d="M102 0l251 1423h203l-98 -536h13q41 86 120 135.5t191 49.5q158 0 242 -93t84 -234q0 -62 -21 -180l-99 -565h-204l102 576q12 70 12 122q0 89 -48 144t-144 55q-120 0 -195.5 -82t-97.5 -210l-107 -605h-204z" />
    <glyph glyph-name="i" unicode="i" horiz-adv-x="566" 
d="M116 0l186 1056h203l-186 -1056h-203zM306 1370q0 60 40 98t100 38q61 0 99.5 -37.5t38.5 -95.5t-40 -96t-102 -38q-59 0 -97.5 37t-38.5 94z" />
    <glyph glyph-name="j" unicode="j" horiz-adv-x="574" 
d="M514 1056l-187 -1060q-32 -181 -126.5 -261t-263.5 -80q-46 0 -106 13l34 171q35 -10 79 -10q71 0 118 42t61 118l188 1067h203zM315 1370q0 60 39.5 98t99.5 38q62 0 100 -37.5t38 -95.5q0 -59 -40 -96.5t-102 -37.5q-59 0 -97 37t-38 94z" />
    <glyph glyph-name="k" unicode="k" horiz-adv-x="1105" 
d="M377 412l-74 -412h-201l251 1423h201l-138 -776h14l474 409h263l-501 -427l323 -629h-221l-260 518z" />
    <glyph glyph-name="l" unicode="l" horiz-adv-x="566" 
d="M115 0l252 1423h204l-252 -1423h-204z" />
    <glyph glyph-name="m" unicode="m" horiz-adv-x="1791" 
d="M102 0l186 1056h198l-31 -175h13q34 82 108 136.5t186 54.5q114 0 187.5 -53.5t101.5 -141.5h12q17 35 40.5 66t61 62t92.5 49t121 18q152 0 230 -89.5t78 -228.5q0 -59 -21 -183l-101 -571h-204l103 583q11 62 11 116q0 92 -40.5 145t-127.5 53q-100 0 -165 -75.5
t-89 -208.5l-109 -613h-200l103 583q10 56 10 117q0 197 -172 197q-112 0 -179.5 -77.5t-90.5 -207.5l-108 -612h-204z" />
    <glyph glyph-name="n" unicode="n" horiz-adv-x="1209" 
d="M102 0l186 1056h200l-32 -169h14q43 87 121.5 136t189.5 49q81 0 144 -26t101 -71.5t57.5 -103.5t19.5 -125q0 -66 -21 -181l-100 -565h-204l102 576q13 78 13 121q0 89 -46.5 144.5t-142.5 55.5q-120 0 -194 -80.5t-97 -211.5l-107 -605h-204z" />
    <glyph glyph-name="o" unicode="o" horiz-adv-x="1152" 
d="M362 634l-20 -114q-11 -57 -11 -104q0 -115 67 -185.5t183 -70.5q107 0 175.5 72t91.5 202l21 122q5 29 5 92q0 110 -66.5 180t-179.5 70q-103 0 -173.5 -68t-92.5 -196zM141 548l21 122q33 185 160 294.5t309 109.5q201 0 325 -116t124 -319q0 -59 -12 -126l-23 -123
q-36 -190 -158 -298.5t-323 -108.5q-189 0 -312 112.5t-123 307.5q0 82 12 145z" />
    <glyph glyph-name="p" unicode="p" horiz-adv-x="1207" 
d="M659 -17q-121 0 -204.5 69t-99.5 154h-14l-99 -566h-203l248 1415h202l-31 -175h14q13 34 34.5 64t56.5 60.5t88.5 48.5t119.5 18q165 0 266 -106.5t101 -286.5q0 -80 -9 -131l-32 -167q-29 -180 -143.5 -288.5t-294.5 -108.5zM387 433q0 -123 73.5 -194t168.5 -71
q110 0 183 73t93 188l25 133q5 30 5 88q0 114 -65 179.5t-177 65.5q-111 0 -184.5 -76t-94.5 -203l-22 -129q-5 -30 -5 -54z" />
    <glyph glyph-name="q" unicode="q" horiz-adv-x="1208" 
d="M607 1071q125 0 208.5 -68t98.5 -151h14l35 203h201l-253 -1414h-204l98 532h-14q-13 -32 -35.5 -62t-57.5 -59.5t-87 -47t-114 -17.5q-165 0 -269 108.5t-104 287.5q0 76 10 132l36 165q33 176 146.5 283.5t290.5 107.5zM880 635q0 123 -73 191t-169 68
q-108 0 -179 -74.5t-94 -187.5l-28 -131q-5 -27 -5 -85q0 -113 65.5 -180.5t175.5 -67.5q112 0 185 75t95 203l23 130q4 23 4 59z" />
    <glyph glyph-name="r" unicode="r" horiz-adv-x="802" 
d="M102 0l186 1056h193l-32 -176h13q30 81 107.5 136.5t186.5 55.5q45 0 92 -13l-39 -196q-41 16 -97 16q-129 0 -204.5 -82.5t-99.5 -217.5l-103 -579h-203z" />
    <glyph glyph-name="s" unicode="s" horiz-adv-x="1046" 
d="M205 758q0 144 102 230.5t288 86.5q180 0 286 -87.5t106 -205.5v-24h-184v11q0 55 -56 101.5t-153 46.5q-88 0 -140 -39t-52 -97q0 -32 13.5 -56t49.5 -43.5t58.5 -28.5t79.5 -27l27 -9q52 -17 90.5 -33t78.5 -41.5t64.5 -56t40.5 -74t16 -97.5q0 -159 -114.5 -246
t-304.5 -87q-181 0 -300.5 88t-119.5 223q0 14 1 17h188q0 -2 0.5 -9t0.5 -10q11 -61 76 -102.5t164 -41.5q100 0 154.5 40.5t54.5 108.5q0 18 -3.5 33.5t-14 28.5t-18.5 22.5t-28 19.5t-29.5 15.5t-37.5 15t-38 12.5t-43 13q-32 10 -53.5 18t-56 23t-58.5 30.5t-51.5 39.5
t-44 50.5t-28 63t-11.5 77.5z" />
    <glyph glyph-name="t" unicode="t" horiz-adv-x="772" 
d="M341 1039l49 275h199l-48 -275h227l-29 -170h-225l-83 -466q-20 -102 -20 -133q0 -51 28.5 -77t97.5 -26q65 0 119 10l-28 -165q-52 -15 -150 -15q-277 0 -277 210q0 48 15 125l96 537h-157l29 170h157z" />
    <glyph glyph-name="u" unicode="u" horiz-adv-x="1198" 
d="M1150 1056l-186 -1056h-193l31 175h-14q-40 -85 -120 -138.5t-190 -53.5q-155 0 -242 90.5t-87 234.5q0 75 20 181l103 567h203l-102 -572q-14 -74 -14 -128q0 -90 51 -140.5t149 -50.5q119 0 191.5 80t95.5 211l106 600h198z" />
    <glyph glyph-name="v" unicode="v" horiz-adv-x="1063" 
d="M345 0l-173 1056h210l104 -842h11l389 842h209l-523 -1056h-227z" />
    <glyph glyph-name="w" unicode="w" horiz-adv-x="1505" 
d="M1555 1056l-463 -1056h-215l-68 789h-8l-318 -789h-223l-116 1056h206l55 -836h10l337 836h186l68 -836h10l333 836h206z" />
    <glyph glyph-name="x" unicode="x" horiz-adv-x="1037" 
d="M704 0l-182 386h-7l-301 -386h-225l425 530l-259 526h222l179 -393h10l302 393h231l-438 -532l264 -524h-221z" />
    <glyph glyph-name="y" unicode="y" horiz-adv-x="1087" 
d="M1119 1056l-531 -1046q-1 -3 -20 -37t-19 -35q-43 -83 -78.5 -133t-85 -89t-113.5 -54.5t-154 -15.5q-52 0 -104 13l35 167q40 -10 80 -10q84 0 130 37.5t81 111.5l23 53l-191 1038h212l121 -836h12l386 836h216z" />
    <glyph glyph-name="z" unicode="z" horiz-adv-x="987" 
d="M51 0l29 167l657 707l3 13h-556l30 169h796l-29 -172l-652 -698l-2 -14h554l-30 -172h-800z" />
    <glyph glyph-name="braceleft" unicode="{" horiz-adv-x="788" 
d="M327 592l-5 -26q79 -9 117.5 -68.5t21.5 -160.5q-59 -308 -59 -341q-4 -89 32 -121.5t153 -32.5h42l-27 -163h-79q-170 0 -246 65t-69 199q0 55 52 330q19 107 -10 153.5t-128 46.5l35 211q99 0 144.5 46.5t64.5 154.5l40 212q15 82 44 142t67 97t91 59.5t108.5 31
t125.5 8.5h70l-26 -163h-42q-123 0 -179.5 -53t-73.5 -152l-47 -254q-19 -111 -72 -163t-145 -58z" />
    <glyph glyph-name="bar" unicode="|" horiz-adv-x="694" 
d="M330 -289h-186l301 1709h186z" />
    <glyph glyph-name="braceright" unicode="}" horiz-adv-x="787" 
d="M534 566l4 26q-79 8 -117.5 64t-21.5 157q53 267 53 304q4 90 -32 122.5t-154 32.5h-41l27 163h78q170 0 246.5 -64.5t69.5 -196.5q0 -60 -13 -143t-26.5 -143t-13.5 -66q-3 -72 30.5 -105t115.5 -33l-36 -211q-98 0 -144 -46.5t-65 -153.5l-46 -253q-18 -102 -57 -170.5
t-98.5 -105t-126 -51t-155.5 -14.5h-69l27 163h41q123 0 179.5 53t73.5 152l53 290q19 111 72.5 166.5t145.5 62.5z" />
    <glyph glyph-name="asciitilde" unicode="~" horiz-adv-x="1167" 
d="M842 482q-62 0 -115 24t-89.5 59t-70 69.5t-71 58.5t-76.5 24q-52 0 -90.5 -41.5t-48.5 -112.5h-163q4 142 85 239.5t211 97.5q62 0 114.5 -24t89 -58.5t70 -69t72 -58.5t79.5 -24q54 0 89.5 39.5t46.5 104.5h163q-9 -141 -89.5 -234.5t-206.5 -93.5z" />
    <glyph glyph-name="nonbreakingspace" unicode="&#xa0;" horiz-adv-x="461" 
 />
    <glyph glyph-name="exclamdown" unicode="&#xa1;" horiz-adv-x="644" 
d="M567 933q0 -66 -43 -107.5t-109 -41.5q-68 0 -111 41t-43 105q0 63 44 104.5t112 41.5q65 0 107.5 -41t42.5 -102zM320 -309h-226l200 937h160z" />
    <glyph glyph-name="cent" unicode="&#xa2;" 
d="M179 544q0 67 14 148l24 136q32 183 148 283.5t289 108.5l43 235h164l-46 -250q128 -32 202 -122t74 -205q0 -17 -1 -21h-189v13q0 68 -59.5 123t-161.5 55q-103 0 -175 -67t-95 -192l-20 -114q-10 -57 -10 -101q0 -124 60.5 -193t177.5 -69q87 0 143 36t69 91h200
q-21 -135 -132.5 -217t-269.5 -86h-1l-39 -221h-165l42 236q-133 36 -209.5 139.5t-76.5 253.5z" />
    <glyph glyph-name="sterling" unicode="&#xa3;" 
d="M1204 1021h-187q10 79 -43 135.5t-148 56.5q-84 0 -133 -47t-63 -123l-50 -274h298l-27 -157h-294q-1 -9 -20.5 -107.5t-22.5 -103.5q-36 -163 -146 -210v-12h722l-30 -179h-1026l31 188q23 1 34 1.5t34.5 3t36.5 8.5t34 16t34.5 26t29 38t27 54t20.5 72q3 4 22 95.5
t22 109.5h-189l27 157h185l58 317q26 147 128.5 226.5t256.5 79.5q184 0 289.5 -102t89.5 -269z" />
    <glyph glyph-name="currency" unicode="&#xa4;" 
d="M384 652q0 -98 68.5 -167.5t165.5 -69.5t165.5 69.5t68.5 167.5q0 99 -68.5 168.5t-165.5 69.5t-165.5 -69.5t-68.5 -168.5zM903 118l-129 176q-70 -35 -162 -35q-139 0 -241 91l-207 -152l-95 128l207 152q-38 82 -38 181q0 136 93 242l-139 190l122 104l137 -189
q79 42 177 42q135 0 239 -95l221 161l95 -130l-222 -160q39 -83 39 -178q0 -140 -104 -252l128 -174z" />
    <glyph glyph-name="yen" unicode="&#xa5;" 
d="M205 392h280l24 136h-280l25 144h215l-282 694h221l233 -611h11l437 611h235l-521 -694h231l-24 -144h-294l-24 -136h293l-24 -144h-293l-46 -248h-207l45 248h-279z" />
    <glyph glyph-name="brokenbar" unicode="&#xa6;" horiz-adv-x="682" 
d="M508 782h-175l115 655h175zM316 -304h-175l120 682h175z" />
    <glyph glyph-name="section" unicode="&#xa7;" horiz-adv-x="984" 
d="M49 85h178v-4q1 -83 64.5 -126t159.5 -43q90 0 143 41.5t53 104.5q0 59 -46 94.5t-157 80.5q-15 6 -16 7q-66 27 -114 54.5t-89.5 65.5t-62.5 87.5t-21 111.5q0 103 63.5 171.5t155.5 97.5l1 8q-47 34 -84 93.5t-37 141.5q0 150 110.5 236t277.5 86q152 0 261.5 -89
t108.5 -227q0 -12 -4 -40h-176q3 14 3 22q1 75 -60 120.5t-140 45.5q-78 0 -134.5 -37t-56.5 -104t50 -108t160 -86q56 -23 95.5 -43t80.5 -48.5t66 -59t41 -72t16 -90.5q0 -103 -57 -177.5t-147 -110.5v-8q104 -85 104 -206q0 -155 -115.5 -243t-285.5 -88
q-73 0 -142.5 21.5t-126 60t-91 99.5t-33.5 133q0 11 4 27zM593 367q61 15 105.5 65.5t44.5 117.5q0 59 -45.5 101.5t-132.5 76.5q-50 19 -69 23q-65 -11 -114 -62t-49 -113q0 -59 45 -100.5t129 -78.5q22 -10 86 -30z" />
    <glyph glyph-name="dieresis" unicode="&#xa8;" horiz-adv-x="1000" 
d="M357 1312q0 51 32 82.5t83 31.5t83.5 -31.5t32.5 -82.5q0 -49 -32.5 -80.5t-83.5 -31.5q-50 0 -82.5 31.5t-32.5 80.5zM733 1312q0 50 31.5 82t80.5 32q53 0 86 -31.5t33 -82.5q0 -49 -33 -80.5t-86 -31.5q-48 0 -80 31.5t-32 80.5z" />
    <glyph glyph-name="copyright" unicode="&#xa9;" horiz-adv-x="1726" 
d="M899 -66q-208 0 -370 91.5t-249 249.5t-87 354q0 43 7 102l12 103q32 263 233 431.5t489 168.5q156 0 289.5 -54t226 -146t144.5 -217.5t52 -266.5q0 -54 -5 -91l-12 -102q-33 -277 -235.5 -450t-494.5 -173zM319 622q0 -252 160.5 -408.5t417.5 -156.5q244 0 413 140.5
t197 371.5l12 106q4 32 4 66q0 162 -77.5 292.5t-213 203.5t-303.5 73q-239 0 -404 -140.5t-189 -351.5l-12 -105q-5 -36 -5 -91zM583 590q0 44 9 98l18 102q23 132 108 206t220 74q136 0 215 -71t79 -170q0 -21 -2 -26h-135v15q0 49 -42 88t-112 39q-77 0 -128 -50
t-67 -140l-13 -76q-8 -40 -8 -71q0 -89 43 -139t129 -50q60 0 100 25t49 66h141q-17 -101 -98 -161t-201 -60q-140 0 -222.5 81.5t-82.5 219.5z" />
    <glyph glyph-name="ordfeminine" unicode="&#xaa;" horiz-adv-x="718" 
d="M382 716q-76 0 -127 44.5t-51 125.5q0 92 67.5 138t182.5 46h138l6 40q0 2 0.5 6t0.5 9q0 40 -26 63t-73 23q-35 0 -63.5 -15t-34.5 -42h-136q11 72 74.5 121t169.5 49q107 0 167 -51.5t60 -145.5q0 -21 -3 -39l-63 -363h-136l14 77h-8q-17 -35 -59 -60.5t-100 -25.5z
M345 899q0 -33 24 -54t65 -21q49 0 85 27t45 71l12 62h-120q-54 0 -82.5 -24t-28.5 -61z" />
    <glyph glyph-name="guillemotleft" unicode="&#xab;" horiz-adv-x="1314" 
d="M184 565l415 404h213l-419 -414l-1 -6l258 -394h-203l-265 402zM654 565l415 404h213l-418 -414l-1 -6l258 -394h-203l-266 402z" />
    <glyph glyph-name="logicalnot" unicode="&#xac;" horiz-adv-x="1163" 
d="M1028 93h-180l65 363h-794l29 175h974z" />
    <glyph glyph-name="registered" unicode="&#xae;" horiz-adv-x="1215" 
d="M209 893q0 20 1 28l3 21q8 214 143 344t352 130q214 0 352 -132.5t138 -343.5q0 -3 -0.5 -14.5t-0.5 -15.5l-3 -26q-12 -217 -145 -343.5t-352 -126.5q-217 0 -352.5 131t-135.5 348zM309 892q0 -173 107 -275.5t281 -102.5q177 0 282 100t116 276l2 24q1 6 1 25
q0 168 -109.5 272.5t-281.5 104.5q-177 0 -283.5 -103.5t-111.5 -276.5l-2 -21q-1 -6 -1 -23zM584 666h-102l93 519h190q77 0 118.5 -39t41.5 -110q0 -12 -1 -21q-5 -52 -36.5 -89.5t-81.5 -54.5l70 -205h-106l-59 191h-27h-67zM742 1100h-81l-31 -162h80q102 0 114 78
q0 3 0.5 9.5t0.5 10.5q0 28 -22 46t-61 18z" />
    <glyph glyph-name="macron" unicode="&#xaf;" horiz-adv-x="1000" 
d="M958 1246h-605l22 127h604z" />
    <glyph glyph-name="degree" unicode="&#xb0;" horiz-adv-x="724" 
d="M492 806q-121 0 -205 84.5t-84 205.5q0 120 84 204t205 84q118 0 202 -84t84 -204t-84 -205t-202 -85zM492 949q62 0 106 43.5t44 103.5q0 61 -44 104.5t-106 43.5q-61 0 -106 -43.5t-45 -104.5q0 -60 45 -103.5t106 -43.5z" />
    <glyph glyph-name="plusminus" unicode="&#xb1;" 
d="M708 651l-49 -271h-172l49 271h-390l28 169h391l45 256h172l-46 -256h394l-28 -169h-394zM1015 111h-957l28 165h956z" />
    <glyph glyph-name="twosuperior" unicode="&#xb2;" horiz-adv-x="743" 
d="M441 1161h-140q7 95 74 155t172 60q96 0 160.5 -52t64.5 -140q0 -64 -35 -113.5t-107 -110.5q-1 -1 -28.5 -23.5t-57.5 -48t-57 -48t-30 -24.5l-1 -2h282l-21 -125h-483l18 105l274 242q59 54 77 82q18 29 18 56q0 32 -22.5 53.5t-61.5 21.5q-41 0 -66.5 -25t-29.5 -63z
" />
    <glyph glyph-name="threesuperior" unicode="&#xb3;" horiz-adv-x="749" 
d="M393 982l7 115h59q52 0 89.5 22t37.5 62q0 34 -25.5 54t-63.5 20q-37 0 -60 -18.5t-29 -46.5h-142q8 82 71 134t161 52q94 0 164 -47t70 -133q0 -63 -38 -106.5t-92 -54.5v-3q48 -16 75.5 -55.5t27.5 -95.5q0 -93 -74 -149.5t-188 -53.5q-104 3 -168 54.5t-70 136.5v9.5
v9v7.5h132v-3q3 -40 33 -64t77 -24q46 0 77 24.5t31 67.5q0 75 -104 85q-11 1 -58 1z" />
    <glyph glyph-name="acute" unicode="&#xb4;" horiz-adv-x="1000" 
d="M410 1216l284 354h198l-337 -354h-145z" />
    <glyph glyph-name="paragraph" unicode="&#xb6;" horiz-adv-x="1338" 
d="M717 -210h-197l122 678l-19 3q-59 11 -119.5 41.5t-118 81.5t-94 132.5t-36.5 178.5q0 10 2 32q5 132 76 230.5t187 148t259 49.5h215zM876 -210l278 1575h197l-278 -1575h-197z" />
    <glyph glyph-name="periodcentered" unicode="&#xb7;" horiz-adv-x="562" 
d="M196 755q0 69 43.5 112.5t106.5 43.5q67 0 110.5 -43.5t43.5 -112.5q0 -67 -43.5 -109.5t-110.5 -42.5q-63 0 -106.5 43t-43.5 109z" />
    <glyph glyph-name="cedilla" unicode="&#xb8;" horiz-adv-x="1000" 
d="M269 -151l52 165h136l-44 -141q82 -2 132.5 -42t50.5 -112q0 -7 -1 -10q-3 -92 -71 -141.5t-175 -49.5q-85 0 -157 25l19 112q60 -19 126 -19q106 0 107 67v3q0 66 -133 66h-51z" />
    <glyph glyph-name="onesuperior" unicode="&#xb9;" horiz-adv-x="713" 
d="M522 689h-145l94 528h-6l-168 -91l23 142l176 98h145z" />
    <glyph glyph-name="ordmasculine" unicode="&#xba;" horiz-adv-x="751" 
d="M499 1316q-105 0 -178 -62t-91 -167l-6 -37q-6 -36 -6 -45q-19 -141 57 -221t204 -80q107 0 178 60t90 172l6 36q6 30 6 44q19 135 -57 217.5t-203 82.5zM504 1200q65 0 98.5 -48.5t20.5 -120.5q0 -2 -2.5 -18.5t-2.5 -17.5l-7 -36q-11 -62 -46 -100t-93 -38
q-68 0 -100 48t-19 121q0 18 6 36l6 37q12 62 48 99.5t91 37.5z" />
    <glyph glyph-name="guillemotright" unicode="&#xbb;" horiz-adv-x="1314" 
d="M724 559l-414 -404h-214l418 414l1 6l-258 394h201l267 -402zM1199 559l-413 -404h-214l418 414l1 6l-258 394h201l267 -402z" />
    <glyph glyph-name="onequarter" unicode="&#xbc;" horiz-adv-x="1661" 
d="M1292 678h211l-75 -431h89l-18 -118h-88l-24 -129h-141l22 129h-334l18 118q102 149 340 431zM1098 241h192l60 319h-9q-184 -232 -242 -314zM480 689h-145l94 528h-6l-168 -91l23 142l176 98h145zM367 0h-172l563 683l562 683h173l-563 -683z" />
    <glyph glyph-name="onehalf" unicode="&#xbd;" horiz-adv-x="1683" 
d="M1222 474h-141q7 95 74 155t173 60q96 0 160.5 -52t64.5 -140q0 -65 -35 -114.5t-107 -110.5q-1 -1 -28.5 -23.5t-57.5 -48t-57 -48t-30 -24.5l-1 -2h282l-21 -125h-484l18 105l275 242q59 54 76 82q19 30 19 57q0 32 -22.5 53.5t-61.5 21.5q-41 0 -66.5 -25t-29.5 -63z
M480 689h-145l94 528h-6l-168 -91l23 142l176 98h145zM375 0h-172l563 683l562 683h173l-563 -683z" />
    <glyph glyph-name="threequarters" unicode="&#xbe;" horiz-adv-x="1771" 
d="M1401 678h211l-74 -431h88l-18 -118h-88l-24 -129h-141l23 129h-335l18 118q15 22 32 45.5t30 41.5t34.5 45.5t32 41.5t35.5 45t33 40.5t37 44.5t33.5 40.5t37.5 45t35 41.5zM1207 241h192l60 319h-9q-184 -232 -242 -314zM400 985l7 114h59q52 0 89.5 22t37.5 62
q0 33 -25.5 53t-63.5 20q-37 0 -60 -18.5t-29 -46.5h-141q8 82 71 133.5t160 51.5q94 0 163.5 -46.5t69.5 -132.5q0 -63 -38 -106t-91 -54v-3q47 -16 74.5 -55t27.5 -95q0 -92 -73.5 -148.5t-187.5 -53.5q-103 3 -167 54t-70 136v9.5v9v7.5h132v-3q3 -40 32.5 -63.5
t76.5 -23.5q46 0 77 24t31 67q0 75 -104 85q-11 1 -58 1zM470 0h-172l563 683l562 683h173l-563 -683z" />
    <glyph glyph-name="questiondown" unicode="&#xbf;" horiz-adv-x="1056" 
d="M787 955q0 -65 -43 -107t-109 -42q-67 0 -110.5 41t-43.5 105t43.5 105t112.5 41q65 0 107.5 -40.5t42.5 -102.5zM892 47q-17 -158 -126 -260.5t-301 -102.5q-115 0 -207.5 36.5t-151 115.5t-58.5 190q0 66 21 121t61.5 97.5t77.5 69.5t92 59q49 28 64 37t46.5 32
t42.5 39t23.5 43t16.5 60l12 62h189l-11 -66q-15 -119 -64.5 -183t-174.5 -135q-29 -16 -41 -23t-37.5 -24t-38 -27.5t-30.5 -29.5t-26.5 -35.5t-15 -39t-6.5 -46.5q0 -83 63.5 -129t156.5 -46q98 0 157 52t73 133h193z" />
    <glyph glyph-name="Agrave" unicode="&#xc0;" horiz-adv-x="1270" 
d="M-22 0l714 1366h235l234 -1366h-217l-59 383h-491l-197 -383h-219zM779 1131h-14l-291 -577h390zM961 1508h-198l-309 220h229z" />
    <glyph glyph-name="Aacute" unicode="&#xc1;" horiz-adv-x="1270" 
d="M-22 0l714 1366h235l234 -1366h-217l-59 383h-491l-197 -383h-219zM779 1131h-14l-291 -577h390zM679 1509l306 220h237l-341 -220h-202z" />
    <glyph glyph-name="Acircumflex" unicode="&#xc2;" horiz-adv-x="1270" 
d="M-22 0l714 1366h235l234 -1366h-217l-59 383h-491l-197 -383h-219zM779 1131h-14l-291 -577h390zM480 1496l294 237h178l220 -237h-183l-127 138h-13l-175 -138h-194z" />
    <glyph glyph-name="Atilde" unicode="&#xc3;" horiz-adv-x="1270" 
d="M-22 0l714 1366h235l234 -1366h-217l-59 383h-491l-197 -383h-219zM779 1131h-14l-291 -577h390zM952 1449q-46 0 -84.5 20t-59.5 43.5t-48.5 43.5t-54.5 20q-64 0 -71 -101h-126q0 92 49 158t144 66q41 0 75 -13.5t56 -32.5t41.5 -37.5t39 -32t39.5 -13.5q36 0 54 34.5
t21 77.5h126q0 -92 -53 -162.5t-148 -70.5z" />
    <glyph glyph-name="Adieresis" unicode="&#xc4;" horiz-adv-x="1270" 
d="M-22 0l714 1366h235l234 -1366h-217l-59 383h-491l-197 -383h-219zM779 1131h-14l-291 -577h390zM555 1578q0 48 31 78t79 30t78.5 -30t30.5 -78q0 -47 -30.5 -76.5t-78.5 -29.5t-79 30t-31 76zM915 1578q0 48 30 78t76 30q50 0 81.5 -29.5t31.5 -78.5q0 -47 -31.5 -76.5
t-81.5 -29.5q-46 0 -76 30t-30 76z" />
    <glyph glyph-name="Aring" unicode="&#xc5;" horiz-adv-x="1270" 
d="M-22 0l714 1366h235l234 -1366h-217l-59 383h-491l-197 -383h-219zM779 1131h-14l-291 -577h390zM860 1572q42 0 70.5 29t28.5 70q0 42 -28.5 70.5t-70.5 28.5t-71 -29t-29 -70t29 -70t71 -29zM859 1474q-82 0 -139 57t-57 140q0 84 57.5 140.5t140.5 56.5t139.5 -57
t56.5 -140q0 -84 -57.5 -140.5t-140.5 -56.5z" />
    <glyph glyph-name="AE" unicode="&#xc6;" horiz-adv-x="1853" 
d="M1017 1122l-427 -570h336l108 570h-17zM829 0l68 376h-415l-294 -376h-236l1016 1366h929l-30 -186h-625l-71 -392h591l-28 -178h-593l-78 -424h627l-30 -186h-831z" />
    <glyph glyph-name="Ccedilla" unicode="&#xc7;" horiz-adv-x="1303" 
d="M607 -482q-84 0 -156 25l18 112q62 -19 127 -19q106 0 107 67v3q0 66 -133 66h-52l10 77l40 134q-183 32 -295 165t-112 362q0 84 9 140l45 228q47 247 199.5 381t373.5 134q114 0 210 -35.5t158.5 -95t97 -134.5t34.5 -156q0 -40 -4 -54h-199v11.5v15v11.5q-4 44 -24 85
t-55 77t-93 57.5t-129 21.5q-290 0 -363 -356l-37 -179q-13 -69 -13 -151q0 -168 91.5 -254t235.5 -86q129 0 207.5 62.5t98.5 158.5h202q-3 -27 -7 -41q-13 -69 -48.5 -132t-94 -118t-150 -89.5t-203.5 -37.5l-31 -101q82 -2 132.5 -42t50.5 -112q0 -1 -0.5 -5t-0.5 -5
q-3 -92 -71.5 -141.5t-175.5 -49.5z" />
    <glyph glyph-name="Egrave" unicode="&#xc8;" horiz-adv-x="1146" 
d="M916 1508h-198l-309 220h229zM983 188l-31 -188h-833l241 1366h830l-31 -188h-623l-71 -390h590l-30 -178h-590l-78 -422h626z" />
    <glyph glyph-name="Eacute" unicode="&#xc9;" horiz-adv-x="1146" 
d="M634 1509l306 220h237l-341 -220h-202zM983 188l-31 -188h-833l241 1366h830l-31 -188h-623l-71 -390h590l-30 -178h-590l-78 -422h626z" />
    <glyph glyph-name="Ecircumflex" unicode="&#xca;" horiz-adv-x="1146" 
d="M435 1496l294 237h178l220 -237h-183l-127 138h-13l-175 -138h-194zM983 188l-31 -188h-833l241 1366h830l-31 -188h-623l-71 -390h590l-30 -178h-590l-78 -422h626z" />
    <glyph glyph-name="Edieresis" unicode="&#xcb;" horiz-adv-x="1146" 
d="M510 1578q0 48 31 78t79 30t78.5 -30t30.5 -78q0 -47 -30.5 -76.5t-78.5 -29.5t-79 30t-31 76zM870 1578q0 48 30 78t76 30q50 0 81.5 -29.5t31.5 -78.5q0 -47 -31.5 -76.5t-81.5 -29.5q-46 0 -76 30t-30 76zM983 188l-31 -188h-833l241 1366h830l-31 -188h-623l-71 -390
h590l-30 -178h-590l-78 -422h626z" />
    <glyph glyph-name="Igrave" unicode="&#xcc;" horiz-adv-x="576" 
d="M326 0h-207l241 1366h207zM621 1508h-198l-309 220h229z" />
    <glyph glyph-name="Iacute" unicode="&#xcd;" horiz-adv-x="576" 
d="M326 0h-207l241 1366h207zM339 1509l306 220h237l-341 -220h-202z" />
    <glyph glyph-name="Icircumflex" unicode="&#xce;" horiz-adv-x="576" 
d="M326 0h-207l241 1366h207zM140 1496l294 237h178l220 -237h-183l-127 138h-13l-175 -138h-194z" />
    <glyph glyph-name="Idieresis" unicode="&#xcf;" horiz-adv-x="576" 
d="M326 0h-207l241 1366h207zM215 1578q0 48 31 78t79 30t78.5 -30t30.5 -78q0 -47 -30.5 -76.5t-78.5 -29.5t-79 30t-31 76zM575 1578q0 48 30 78t76 30q50 0 81.5 -29.5t31.5 -78.5q0 -47 -31.5 -76.5t-81.5 -29.5q-46 0 -76 30t-30 76z" />
    <glyph glyph-name="Eth" unicode="&#xd0;" horiz-adv-x="1459" 
d="M454 1366h409q262 0 403 -142.5t141 -381.5q0 -85 -10 -146q0 -4 -12.5 -74t-13.5 -74q-50 -267 -240 -407.5t-510 -140.5h-408l107 598h-164l32 195h163zM631 1178l-71 -385h283l-32 -195h-282l-76 -410h161q224 0 368 96t181 286q2 6 12.5 66t11.5 67q9 53 9 123
q0 177 -101.5 264.5t-294.5 87.5h-169z" />
    <glyph glyph-name="Ntilde" unicode="&#xd1;" horiz-adv-x="1429" 
d="M1048 1449q-46 0 -84.5 20t-59.5 43.5t-48.5 43.5t-54.5 20q-64 0 -71 -101h-126q0 92 49 158t144 66q41 0 75 -13.5t56 -32.5t41.5 -37.5t39 -32t39.5 -13.5q36 0 54 34.5t21 77.5h126q0 -92 -53 -162.5t-148 -70.5zM1179 0h-187l-481 998h-11l-180 -998h-201l241 1366
h189l476 -998h12l181 998h202z" />
    <glyph glyph-name="Ograve" unicode="&#xd2;" horiz-adv-x="1390" 
d="M1024 1508h-198l-309 220h229zM419 842l-34 -180q-14 -82 -14 -149q0 -159 91 -252t253 -93q149 0 243.5 93.5t127.5 278.5l35 192q8 43 8 128q0 154 -92 247t-250 93q-142 0 -237.5 -87t-130.5 -271zM175 676l37 205q43 243 199.5 377.5t381.5 134.5q247 0 397.5 -143
t150.5 -392q0 -88 -15 -163l-38 -206q-46 -249 -196 -382.5t-400 -133.5q-232 0 -381.5 137.5t-149.5 376.5q0 115 14 189z" />
    <glyph glyph-name="Oacute" unicode="&#xd3;" horiz-adv-x="1390" 
d="M742 1509l306 220h237l-341 -220h-202zM419 842l-34 -180q-14 -82 -14 -149q0 -159 91 -252t253 -93q149 0 243.5 93.5t127.5 278.5l35 192q8 43 8 128q0 154 -92 247t-250 93q-142 0 -237.5 -87t-130.5 -271zM175 676l37 205q43 243 199.5 377.5t381.5 134.5
q247 0 397.5 -143t150.5 -392q0 -88 -15 -163l-38 -206q-46 -249 -196 -382.5t-400 -133.5q-232 0 -381.5 137.5t-149.5 376.5q0 115 14 189z" />
    <glyph glyph-name="Ocircumflex" unicode="&#xd4;" horiz-adv-x="1390" 
d="M543 1496l294 237h178l220 -237h-183l-127 138h-13l-175 -138h-194zM419 842l-34 -180q-14 -82 -14 -149q0 -159 91 -252t253 -93q149 0 243.5 93.5t127.5 278.5l35 192q8 43 8 128q0 154 -92 247t-250 93q-142 0 -237.5 -87t-130.5 -271zM175 676l37 205
q43 243 199.5 377.5t381.5 134.5q247 0 397.5 -143t150.5 -392q0 -88 -15 -163l-38 -206q-46 -249 -196 -382.5t-400 -133.5q-232 0 -381.5 137.5t-149.5 376.5q0 115 14 189z" />
    <glyph glyph-name="Otilde" unicode="&#xd5;" horiz-adv-x="1390" 
d="M419 842l-34 -180q-14 -82 -14 -149q0 -159 91 -252t253 -93q149 0 243.5 93.5t127.5 278.5l35 192q8 43 8 128q0 154 -92 247t-250 93q-142 0 -237.5 -87t-130.5 -271zM175 676l37 205q43 243 199.5 377.5t381.5 134.5q247 0 397.5 -143t150.5 -392q0 -88 -15 -163
l-38 -206q-46 -249 -196 -382.5t-400 -133.5q-232 0 -381.5 137.5t-149.5 376.5q0 115 14 189zM1015 1449q-46 0 -84.5 20t-59.5 43.5t-48.5 43.5t-54.5 20q-64 0 -71 -101h-126q0 92 49 158t144 66q41 0 75 -13.5t56 -32.5t41.5 -37.5t39 -32t39.5 -13.5q36 0 54 34.5
t21 77.5h126q0 -92 -53 -162.5t-148 -70.5z" />
    <glyph glyph-name="Odieresis" unicode="&#xd6;" horiz-adv-x="1390" 
d="M618 1578q0 48 31 78t79 30t78.5 -30t30.5 -78q0 -47 -30.5 -76.5t-78.5 -29.5t-79 30t-31 76zM978 1578q0 48 30 78t76 30q50 0 81.5 -29.5t31.5 -78.5q0 -47 -31.5 -76.5t-81.5 -29.5q-46 0 -76 30t-30 76zM419 842l-34 -180q-14 -82 -14 -149q0 -159 91 -252t253 -93
q149 0 243.5 93.5t127.5 278.5l35 192q8 43 8 128q0 154 -92 247t-250 93q-142 0 -237.5 -87t-130.5 -271zM175 676l37 205q43 243 199.5 377.5t381.5 134.5q247 0 397.5 -143t150.5 -392q0 -88 -15 -163l-38 -206q-46 -249 -196 -382.5t-400 -133.5q-232 0 -381.5 137.5
t-149.5 376.5q0 115 14 189z" />
    <glyph glyph-name="multiply" unicode="&#xd7;" 
d="M1077 790l-362 -293l255 -315l-130 -118l-255 316l-344 -291l-102 141l343 290l-251 312l131 117l251 -312l362 293z" />
    <glyph glyph-name="Oslash" unicode="&#xd8;" horiz-adv-x="1387" 
d="M171 676l37 205q44 243 200.5 377.5t381.5 134.5q139 0 250.5 -46.5t182.5 -134.5l109 103l93 -96l-132 -123q45 -107 45 -238q0 -81 -15 -163l-38 -206q-46 -249 -196 -382.5t-401 -133.5q-131 0 -239.5 45t-179.5 131l-108 -103l-88 101l126 119q-42 100 -42 221
q0 109 14 189zM1124 833q0 51 -7 83l-694 -613q90 -134 291 -134q148 0 242 93t127 278l33 177q8 44 8 116zM1072 1061q-90 138 -289 138q-141 0 -236.5 -86.5t-130.5 -270.5l-34 -180q-14 -74 -14 -136q0 -41 8 -79z" />
    <glyph glyph-name="Ugrave" unicode="&#xd9;" horiz-adv-x="1384" 
d="M1028 1508h-198l-309 220h229zM553 1366l-145 -825q-8 -34 -8 -92q0 -125 78.5 -200.5t215.5 -75.5q126 0 213.5 71.5t112.5 213.5l161 908h211l-166 -944q-39 -222 -183 -335.5t-356 -113.5q-220 0 -361 118t-141 326q0 45 13 131l144 818h211z" />
    <glyph glyph-name="Uacute" unicode="&#xda;" horiz-adv-x="1384" 
d="M746 1509l306 220h237l-341 -220h-202zM553 1366l-145 -825q-8 -34 -8 -92q0 -125 78.5 -200.5t215.5 -75.5q126 0 213.5 71.5t112.5 213.5l161 908h211l-166 -944q-39 -222 -183 -335.5t-356 -113.5q-220 0 -361 118t-141 326q0 45 13 131l144 818h211z" />
    <glyph glyph-name="Ucircumflex" unicode="&#xdb;" horiz-adv-x="1384" 
d="M547 1496l294 237h178l220 -237h-183l-127 138h-13l-175 -138h-194zM553 1366l-145 -825q-8 -34 -8 -92q0 -125 78.5 -200.5t215.5 -75.5q126 0 213.5 71.5t112.5 213.5l161 908h211l-166 -944q-39 -222 -183 -335.5t-356 -113.5q-220 0 -361 118t-141 326q0 45 13 131
l144 818h211z" />
    <glyph glyph-name="Udieresis" unicode="&#xdc;" horiz-adv-x="1384" 
d="M622 1578q0 48 31 78t79 30t78.5 -30t30.5 -78q0 -47 -30.5 -76.5t-78.5 -29.5t-79 30t-31 76zM982 1578q0 48 30 78t76 30q50 0 81.5 -29.5t31.5 -78.5q0 -47 -31.5 -76.5t-81.5 -29.5q-46 0 -76 30t-30 76zM553 1366l-145 -825q-8 -34 -8 -92q0 -125 78.5 -200.5
t215.5 -75.5q126 0 213.5 71.5t112.5 213.5l161 908h211l-166 -944q-39 -222 -183 -335.5t-356 -113.5q-220 0 -361 118t-141 326q0 45 13 131l144 818h211z" />
    <glyph glyph-name="Yacute" unicode="&#xdd;" horiz-adv-x="1154" 
d="M718 552l-98 -552h-208l98 548l-326 818h220l232 -612h11l438 612h236zM627 1509l306 220h237l-341 -220h-202z" />
    <glyph glyph-name="Thorn" unicode="&#xde;" horiz-adv-x="1213" 
d="M358 1366h204l-44 -253h250q194 0 299.5 -95t105.5 -256q0 -38 -6 -83q-53 -392 -548 -392h-244l-52 -287h-206zM725 931h-236l-84 -463h223q113 0 185.5 29t104.5 74.5t42 112.5q6 28 6 61q0 186 -241 186z" />
    <glyph glyph-name="germandbls" unicode="&#xdf;" horiz-adv-x="1299" 
d="M324 0h-204l205 1151q25 141 136.5 222t279.5 81q195 0 322 -104.5t127 -275.5q0 -75 -28.5 -140.5t-73.5 -107.5t-96.5 -68t-101.5 -32l-1 -10q131 -24 213.5 -113.5t82.5 -247.5q0 -121 -60.5 -211t-156 -133.5t-210.5 -43.5q-79 0 -151 17.5t-108 38.5l30 170
q27 -16 86.5 -31.5t118.5 -15.5q104 0 178 60t74 170q0 121 -86 190.5t-207 70.5h-65l33 191h61q122 0 196.5 63t74.5 171q0 102 -72 157.5t-180 55.5q-91 0 -148 -43.5t-72 -128.5z" />
    <glyph glyph-name="agrave" unicode="&#xe0;" horiz-adv-x="1116" 
d="M414 -17q-135 0 -226 80t-91 217q0 22 2 36q11 143 121 223.5t306 80.5h276l11 67q3 30 3 44q0 71 -50 121t-156 50q-85 0 -137.5 -32t-69.5 -84h-195q22 125 131.5 206.5t284.5 81.5q185 0 286 -91t101 -246q0 -52 -18 -146l-104 -591h-194l25 140h-12
q-33 -64 -109.5 -110.5t-184.5 -46.5zM300 303q0 -67 48 -109.5t131 -42.5q100 0 178 56.5t94 143.5l22 123h-245q-111 0 -169.5 -49t-58.5 -122zM782 1227h-155l-247 354h208z" />
    <glyph glyph-name="aacute" unicode="&#xe1;" horiz-adv-x="1116" 
d="M414 -17q-135 0 -226 80t-91 217q0 22 2 36q11 143 121 223.5t306 80.5h276l11 67q3 30 3 44q0 71 -50 121t-156 50q-85 0 -137.5 -32t-69.5 -84h-195q22 125 131.5 206.5t284.5 81.5q185 0 286 -91t101 -246q0 -52 -18 -146l-104 -591h-194l25 140h-12
q-33 -64 -109.5 -110.5t-184.5 -46.5zM300 303q0 -67 48 -109.5t131 -42.5q100 0 178 56.5t94 143.5l22 123h-245q-111 0 -169.5 -49t-58.5 -122zM538 1233l284 354h198l-337 -354h-145z" />
    <glyph glyph-name="acircumflex" unicode="&#xe2;" horiz-adv-x="1116" 
d="M414 -17q-135 0 -226 80t-91 217q0 22 2 36q11 143 121 223.5t306 80.5h276l11 67q3 30 3 44q0 71 -50 121t-156 50q-85 0 -137.5 -32t-69.5 -84h-195q22 125 131.5 206.5t284.5 81.5q185 0 286 -91t101 -246q0 -52 -18 -146l-104 -591h-194l25 140h-12
q-33 -64 -109.5 -110.5t-184.5 -46.5zM300 303q0 -67 48 -109.5t131 -42.5q100 0 178 56.5t94 143.5l22 123h-245q-111 0 -169.5 -49t-58.5 -122zM354 1223l308 368h142l182 -368h-165l-104 245h-6l-190 -245h-167z" />
    <glyph glyph-name="atilde" unicode="&#xe3;" horiz-adv-x="1116" 
d="M414 -17q-135 0 -226 80t-91 217q0 22 2 36q11 143 121 223.5t306 80.5h276l11 67q3 30 3 44q0 71 -50 121t-156 50q-85 0 -137.5 -32t-69.5 -84h-195q22 125 131.5 206.5t284.5 81.5q185 0 286 -91t101 -246q0 -52 -18 -146l-104 -591h-194l25 140h-12
q-33 -64 -109.5 -110.5t-184.5 -46.5zM300 303q0 -67 48 -109.5t131 -42.5q100 0 178 56.5t94 143.5l22 123h-245q-111 0 -169.5 -49t-58.5 -122zM793 1181q-40 0 -73 17t-53.5 41.5t-38.5 48.5t-39 41t-45 17q-62 0 -82 -114h-133q9 118 66 188t145 70q42 0 77 -17t57 -41
t41 -48t39 -41t42 -17q34 0 54.5 35t27.5 80h134q-5 -106 -66.5 -183t-152.5 -77z" />
    <glyph glyph-name="adieresis" unicode="&#xe4;" horiz-adv-x="1116" 
d="M414 -17q-135 0 -226 80t-91 217q0 22 2 36q11 143 121 223.5t306 80.5h276l11 67q3 30 3 44q0 71 -50 121t-156 50q-85 0 -137.5 -32t-69.5 -84h-195q22 125 131.5 206.5t284.5 81.5q185 0 286 -91t101 -246q0 -52 -18 -146l-104 -591h-194l25 140h-12
q-33 -64 -109.5 -110.5t-184.5 -46.5zM300 303q0 -67 48 -109.5t131 -42.5q100 0 178 56.5t94 143.5l22 123h-245q-111 0 -169.5 -49t-58.5 -122zM382 1323q0 51 32 82.5t83 31.5t83.5 -31.5t32.5 -82.5q0 -49 -32.5 -80.5t-83.5 -31.5q-50 0 -82.5 31.5t-32.5 80.5z
M758 1323q0 51 32 82.5t80 31.5q53 0 86 -31.5t33 -82.5q0 -49 -33 -80.5t-86 -31.5q-48 0 -80 31.5t-32 80.5z" />
    <glyph glyph-name="aring" unicode="&#xe5;" horiz-adv-x="1116" 
d="M414 -17q-135 0 -226 80t-91 217q0 22 2 36q11 143 121 223.5t306 80.5h276l11 67q3 30 3 44q0 71 -50 121t-156 50q-85 0 -137.5 -32t-69.5 -84h-195q22 125 131.5 206.5t284.5 81.5q185 0 286 -91t101 -246q0 -52 -18 -146l-104 -591h-194l25 140h-12
q-33 -64 -109.5 -110.5t-184.5 -46.5zM300 303q0 -67 48 -109.5t131 -42.5q100 0 178 56.5t94 143.5l22 123h-245q-111 0 -169.5 -49t-58.5 -122zM710 1321q42 0 71.5 29t29.5 70q0 42 -29.5 70.5t-71.5 28.5t-72 -28.5t-30 -70.5q0 -40 30.5 -69.5t71.5 -29.5zM709 1220
q-83 0 -140 58.5t-57 141.5q0 84 58 141.5t141 57.5q82 0 138.5 -58t56.5 -141q0 -84 -57.5 -142t-139.5 -58z" />
    <glyph glyph-name="ae" unicode="&#xe6;" horiz-adv-x="1762" 
d="M1204 -19q-128 0 -222.5 58t-137.5 166h-4q-124 -222 -393 -222q-162 0 -256 79t-94 226q0 161 114 245.5t318 84.5h271l13 74q3 21 3 41q0 69 -50.5 120t-156.5 51q-84 0 -136.5 -33t-69.5 -85h-195q21 124 131 206t280 82q227 0 322 -144h4q60 68 150 106t198 38
q112 0 195 -39.5t127.5 -104.5t61.5 -143t7 -162q0 -8 -24 -146h-683q-10 -58 -10 -86q0 -102 57.5 -169t178.5 -67q87 0 146 35t75 90h197q-18 -119 -134 -210t-283 -91zM300 303q0 -66 47.5 -107.5t131.5 -41.5q101 0 177.5 58.5t94.5 150.5l23 113h-246q-112 0 -170 -50
t-58 -123zM1492 624q4 12 4 21q19 110 -37 184.5t-174 74.5q-98 0 -173 -56.5t-97 -163.5q-13 -51 -13 -60h490z" />
    <glyph glyph-name="ccedilla" unicode="&#xe7;" horiz-adv-x="1078" 
d="M453 -482q-84 0 -156 25l18 112q62 -19 127 -19q106 0 107 67v3q0 66 -133 66h-52l10 77l46 148q-138 36 -216 139.5t-78 257.5q0 65 13 148l25 136q33 194 157 295t307 101q185 0 297.5 -97.5t112.5 -248.5q0 -17 -1 -20h-190q1 2 1 12q0 67 -60 122.5t-161 55.5
q-103 0 -175 -67.5t-95 -191.5l-20 -113q-10 -51 -10 -102q0 -123 60 -192t178 -69q87 0 142.5 35.5t69.5 91.5h200q-22 -140 -135 -222t-276 -86h-14l-34 -109q82 -2 132.5 -42t50.5 -112q0 -1 -0.5 -5t-0.5 -5q-3 -92 -71.5 -141.5t-175.5 -49.5z" />
    <glyph glyph-name="egrave" unicode="&#xe8;" horiz-adv-x="1110" 
d="M805 1227h-155l-247 354h208zM542 -19q-186 0 -302 106.5t-116 303.5q0 70 17 155l24 131q33 190 161.5 293.5t314.5 103.5q113 0 197.5 -39.5t129.5 -104.5t63 -143t7 -162q0 -2 -5.5 -33t-12.5 -68.5t-8 -44.5h-684q-9 -36 -9 -88q0 -100 57.5 -167t179.5 -67
q88 0 146.5 35.5t74.5 89.5h198q-9 -57 -43.5 -110.5t-88.5 -96t-132.5 -68.5t-168.5 -26zM842 624q3 9 3 21q20 110 -36 184.5t-174 74.5q-96 0 -169 -55.5t-97 -164.5l-13 -60h486z" />
    <glyph glyph-name="eacute" unicode="&#xe9;" horiz-adv-x="1110" 
d="M562 1233l284 354h198l-337 -354h-145zM542 -19q-186 0 -302 106.5t-116 303.5q0 70 17 155l24 131q33 190 161.5 293.5t314.5 103.5q113 0 197.5 -39.5t129.5 -104.5t63 -143t7 -162q0 -2 -5.5 -33t-12.5 -68.5t-8 -44.5h-684q-9 -36 -9 -88q0 -100 57.5 -167t179.5 -67
q88 0 146.5 35.5t74.5 89.5h198q-9 -57 -43.5 -110.5t-88.5 -96t-132.5 -68.5t-168.5 -26zM842 624q3 9 3 21q20 110 -36 184.5t-174 74.5q-96 0 -169 -55.5t-97 -164.5l-13 -60h486z" />
    <glyph glyph-name="ecircumflex" unicode="&#xea;" horiz-adv-x="1110" 
d="M378 1223l308 368h142l182 -368h-165l-104 245h-6l-190 -245h-167zM542 -19q-186 0 -302 106.5t-116 303.5q0 70 17 155l24 131q33 190 161.5 293.5t314.5 103.5q113 0 197.5 -39.5t129.5 -104.5t63 -143t7 -162q0 -2 -5.5 -33t-12.5 -68.5t-8 -44.5h-684q-9 -36 -9 -88
q0 -100 57.5 -167t179.5 -67q88 0 146.5 35.5t74.5 89.5h198q-9 -57 -43.5 -110.5t-88.5 -96t-132.5 -68.5t-168.5 -26zM842 624q3 9 3 21q20 110 -36 184.5t-174 74.5q-96 0 -169 -55.5t-97 -164.5l-13 -60h486z" />
    <glyph glyph-name="edieresis" unicode="&#xeb;" horiz-adv-x="1110" 
d="M542 -19q-186 0 -302 106.5t-116 303.5q0 70 17 155l24 131q33 190 161.5 293.5t314.5 103.5q113 0 197.5 -39.5t129.5 -104.5t63 -143t7 -162q0 -2 -5.5 -33t-12.5 -68.5t-8 -44.5h-684q-9 -36 -9 -88q0 -100 57.5 -167t179.5 -67q88 0 146.5 35.5t74.5 89.5h198
q-9 -57 -43.5 -110.5t-88.5 -96t-132.5 -68.5t-168.5 -26zM842 624q3 9 3 21q20 110 -36 184.5t-174 74.5q-96 0 -169 -55.5t-97 -164.5l-13 -60h486zM406 1323q0 51 32 82.5t83 31.5t83.5 -31.5t32.5 -82.5q0 -49 -32.5 -80.5t-83.5 -31.5q-50 0 -82.5 31.5t-32.5 80.5z
M782 1323q0 51 32 82.5t80 31.5q53 0 86 -31.5t33 -82.5q0 -49 -33 -80.5t-86 -31.5q-48 0 -80 31.5t-32 80.5z" />
    <glyph glyph-name="igrave" unicode="&#xec;" horiz-adv-x="566" 
d="M542 1227h-155l-247 354h208zM115 0l188 1056h203l-188 -1056h-203z" />
    <glyph glyph-name="iacute" unicode="&#xed;" horiz-adv-x="566" 
d="M298 1233l284 354h198l-337 -354h-145zM115 0l188 1056h203l-188 -1056h-203z" />
    <glyph glyph-name="icircumflex" unicode="&#xee;" horiz-adv-x="566" 
d="M114 1223l308 368h142l182 -368h-165l-104 245h-6l-190 -245h-167zM115 0l188 1056h203l-188 -1056h-203z" />
    <glyph glyph-name="idieresis" unicode="&#xef;" horiz-adv-x="566" 
d="M115 0l188 1056h203l-188 -1056h-203zM142 1323q0 51 32 82.5t83 31.5t83.5 -31.5t32.5 -82.5q0 -49 -32.5 -80.5t-83.5 -31.5q-50 0 -82.5 31.5t-32.5 80.5zM518 1323q0 51 32 82.5t80 31.5q53 0 86 -31.5t33 -82.5q0 -49 -33 -80.5t-86 -31.5q-48 0 -80 31.5t-32 80.5z
" />
    <glyph glyph-name="eth" unicode="&#xf0;" horiz-adv-x="1201" 
d="M1035 389q-34 -183 -155.5 -296.5t-310.5 -113.5q-199 0 -321 120t-122 319q0 58 11 120q1 10 10 60t10 51q32 175 154 276.5t289 101.5q116 0 188.5 -45t110.5 -108l7 -1q0 2 -0.5 34t-1.5 36q-2 126 -82 258l-292 -66l-17 116l241 52q-74 98 -165 179l172 72
q94 -69 183 -199l251 57l23 -112l-209 -44q105 -200 91 -452q0 -71 -14 -147zM626 858q-112 0 -185.5 -73.5t-93.5 -196.5l-13 -76q-7 -53 -7 -90q0 -119 64 -191t178 -72q110 0 180 71.5t92 197.5l15 87q9 46 9 93q0 117 -65.5 183.5t-173.5 66.5z" />
    <glyph glyph-name="ntilde" unicode="&#xf1;" horiz-adv-x="1209" 
d="M876 1181q-40 0 -73 17t-53.5 41.5t-38.5 48.5t-39 41t-45 17q-62 0 -82 -114h-133q9 118 66 188t145 70q42 0 77 -17t57 -41t41 -48t39 -41t42 -17q34 0 54.5 35t27.5 80h134q-5 -106 -66.5 -183t-152.5 -77zM102 0l186 1056h200l-32 -169h14q43 87 121.5 136t189.5 49
q81 0 144 -26t101 -71.5t57.5 -103.5t19.5 -125q0 -66 -21 -181l-100 -565h-204l102 576q13 78 13 121q0 89 -46.5 144.5t-142.5 55.5q-120 0 -194 -80.5t-97 -211.5l-107 -605h-204z" />
    <glyph glyph-name="ograve" unicode="&#xf2;" horiz-adv-x="1152" 
d="M827 1227h-155l-247 354h208zM362 634l-20 -114q-11 -57 -11 -104q0 -115 67 -185.5t183 -70.5q107 0 175.5 72t91.5 202l21 122q5 29 5 92q0 110 -66.5 180t-179.5 70q-103 0 -173.5 -68t-92.5 -196zM141 548l21 122q33 185 160 294.5t309 109.5q201 0 325 -116
t124 -319q0 -59 -12 -126l-23 -123q-36 -190 -158 -298.5t-323 -108.5q-189 0 -312 112.5t-123 307.5q0 82 12 145z" />
    <glyph glyph-name="oacute" unicode="&#xf3;" horiz-adv-x="1152" 
d="M583 1233l284 354h198l-337 -354h-145zM362 634l-20 -114q-11 -57 -11 -104q0 -115 67 -185.5t183 -70.5q107 0 175.5 72t91.5 202l21 122q5 29 5 92q0 110 -66.5 180t-179.5 70q-103 0 -173.5 -68t-92.5 -196zM141 548l21 122q33 185 160 294.5t309 109.5
q201 0 325 -116t124 -319q0 -59 -12 -126l-23 -123q-36 -190 -158 -298.5t-323 -108.5q-189 0 -312 112.5t-123 307.5q0 82 12 145z" />
    <glyph glyph-name="ocircumflex" unicode="&#xf4;" horiz-adv-x="1152" 
d="M399 1223l308 368h142l182 -368h-165l-104 245h-6l-190 -245h-167zM362 634l-20 -114q-11 -57 -11 -104q0 -115 67 -185.5t183 -70.5q107 0 175.5 72t91.5 202l21 122q5 29 5 92q0 110 -66.5 180t-179.5 70q-103 0 -173.5 -68t-92.5 -196zM141 548l21 122
q33 185 160 294.5t309 109.5q201 0 325 -116t124 -319q0 -59 -12 -126l-23 -123q-36 -190 -158 -298.5t-323 -108.5q-189 0 -312 112.5t-123 307.5q0 82 12 145z" />
    <glyph glyph-name="otilde" unicode="&#xf5;" horiz-adv-x="1152" 
d="M838 1181q-40 0 -73 17t-53.5 41.5t-38.5 48.5t-39 41t-45 17q-62 0 -82 -114h-133q9 118 66 188t145 70q42 0 77 -17t57 -41t41 -48t39 -41t42 -17q34 0 54.5 35t27.5 80h134q-5 -106 -66.5 -183t-152.5 -77zM362 634l-20 -114q-11 -57 -11 -104q0 -115 67 -185.5
t183 -70.5q107 0 175.5 72t91.5 202l21 122q5 29 5 92q0 110 -66.5 180t-179.5 70q-103 0 -173.5 -68t-92.5 -196zM141 548l21 122q33 185 160 294.5t309 109.5q201 0 325 -116t124 -319q0 -59 -12 -126l-23 -123q-36 -190 -158 -298.5t-323 -108.5q-189 0 -312 112.5
t-123 307.5q0 82 12 145z" />
    <glyph glyph-name="odieresis" unicode="&#xf6;" horiz-adv-x="1152" 
d="M427 1323q0 51 32 82.5t83 31.5t83.5 -31.5t32.5 -82.5q0 -49 -32.5 -80.5t-83.5 -31.5q-50 0 -82.5 31.5t-32.5 80.5zM803 1323q0 51 31.5 82.5t80.5 31.5q53 0 86 -31.5t33 -82.5q0 -49 -33 -80.5t-86 -31.5q-48 0 -80 31.5t-32 80.5zM362 634l-20 -114
q-11 -57 -11 -104q0 -115 67 -185.5t183 -70.5q107 0 175.5 72t91.5 202l21 122q5 29 5 92q0 110 -66.5 180t-179.5 70q-103 0 -173.5 -68t-92.5 -196zM141 548l21 122q33 185 160 294.5t309 109.5q201 0 325 -116t124 -319q0 -59 -12 -126l-23 -123q-36 -190 -158 -298.5
t-323 -108.5q-189 0 -312 112.5t-123 307.5q0 82 12 145z" />
    <glyph glyph-name="divide" unicode="&#xf7;" horiz-adv-x="1181" 
d="M519 955q0 63 41.5 103t104.5 40q65 0 106 -39.5t41 -100.5q0 -62 -42 -101t-108 -39q-62 0 -102.5 38.5t-40.5 98.5zM418 146q0 62 41.5 102.5t103.5 40.5q64 0 105.5 -39.5t41.5 -100.5t-42 -100.5t-107 -39.5q-62 0 -102.5 38.5t-40.5 98.5zM1095 465h-976l30 169h975
z" />
    <glyph glyph-name="oslash" unicode="&#xf8;" horiz-adv-x="1154" 
d="M137 548l21 122q33 185 160 294.5t309 109.5q222 0 344 -136l123 111l88 -99l-141 -125q35 -86 35 -186q0 -59 -12 -126l-23 -123q-36 -190 -158 -298.5t-323 -108.5q-204 0 -325 124l-126 -113l-81 98l135 121q-38 85 -38 190q0 82 12 145zM358 634l-21 -114
q-9 -50 -9 -94q0 -34 5 -56l495 426q-67 102 -204 102q-103 0 -173.5 -68t-92.5 -196zM378 249q67 -89 199 -89q107 0 175.5 72t91.5 202l21 122q4 23 4 76q0 13 -2 35z" />
    <glyph glyph-name="ugrave" unicode="&#xf9;" horiz-adv-x="1198" 
d="M851 1227h-155l-247 354h208zM1150 1056l-186 -1056h-193l31 175h-14q-40 -85 -120 -138.5t-190 -53.5q-155 0 -242 90.5t-87 234.5q0 75 20 181l103 567h203l-102 -572q-14 -74 -14 -128q0 -90 51 -140.5t149 -50.5q119 0 191.5 80t95.5 211l106 600h198z" />
    <glyph glyph-name="uacute" unicode="&#xfa;" horiz-adv-x="1198" 
d="M607 1233l284 354h198l-337 -354h-145zM1150 1056l-186 -1056h-193l31 175h-14q-40 -85 -120 -138.5t-190 -53.5q-155 0 -242 90.5t-87 234.5q0 75 20 181l103 567h203l-102 -572q-14 -74 -14 -128q0 -90 51 -140.5t149 -50.5q119 0 191.5 80t95.5 211l106 600h198z" />
    <glyph glyph-name="ucircumflex" unicode="&#xfb;" horiz-adv-x="1198" 
d="M423 1223l308 368h142l182 -368h-165l-104 245h-6l-190 -245h-167zM1150 1056l-186 -1056h-193l31 175h-14q-40 -85 -120 -138.5t-190 -53.5q-155 0 -242 90.5t-87 234.5q0 75 20 181l103 567h203l-102 -572q-14 -74 -14 -128q0 -90 51 -140.5t149 -50.5q119 0 191.5 80
t95.5 211l106 600h198z" />
    <glyph glyph-name="udieresis" unicode="&#xfc;" horiz-adv-x="1198" 
d="M1150 1056l-186 -1056h-193l31 175h-14q-40 -85 -120 -138.5t-190 -53.5q-155 0 -242 90.5t-87 234.5q0 75 20 181l103 567h203l-102 -572q-14 -74 -14 -128q0 -90 51 -140.5t149 -50.5q119 0 191.5 80t95.5 211l106 600h198zM451 1323q0 51 32 82.5t83 31.5t83.5 -31.5
t32.5 -82.5q0 -49 -32.5 -80.5t-83.5 -31.5q-50 0 -82.5 31.5t-32.5 80.5zM827 1323q0 51 31.5 82.5t80.5 31.5q53 0 86 -31.5t33 -82.5q0 -49 -33 -80.5t-86 -31.5q-48 0 -80 31.5t-32 80.5z" />
    <glyph glyph-name="yacute" unicode="&#xfd;" horiz-adv-x="1087" 
d="M1119 1056l-531 -1046q-1 -3 -20 -37t-19 -35q-43 -83 -78.5 -133t-85 -89t-113.5 -54.5t-154 -15.5q-52 0 -104 13l35 167q40 -10 80 -10q84 0 130 37.5t81 111.5l23 53l-191 1038h212l121 -836h12l386 836h216zM551 1233l284 354h198l-337 -354h-145z" />
    <glyph glyph-name="thorn" unicode="&#xfe;" horiz-adv-x="1201" 
d="M670 -17q-133 0 -217 65.5t-106 157.5h-7l-98 -563h-204l316 1794h198l-96 -557h13q85 191 304 191q163 0 261 -106.5t98 -294.5q0 -72 -9 -123l-31 -167q-31 -178 -143 -287.5t-279 -109.5zM386 433q0 -124 73.5 -194.5t174.5 -70.5q102 0 174 73t92 188l25 133
q5 32 5 74q0 125 -61.5 192t-169.5 67q-116 0 -190.5 -75t-95.5 -204l-21 -129q-6 -29 -6 -54z" />
    <glyph glyph-name="ydieresis" unicode="&#xff;" horiz-adv-x="1087" 
d="M1119 1056l-531 -1046q-1 -3 -20 -37t-19 -35q-43 -83 -78.5 -133t-85 -89t-113.5 -54.5t-154 -15.5q-52 0 -104 13l35 167q40 -10 80 -10q84 0 130 37.5t81 111.5l23 53l-191 1038h212l121 -836h12l386 836h216zM395 1323q0 51 32 82.5t83 31.5t83.5 -31.5t32.5 -82.5
q0 -49 -32.5 -80.5t-83.5 -31.5q-50 0 -82.5 31.5t-32.5 80.5zM771 1323q0 51 31.5 82.5t80.5 31.5q53 0 86 -31.5t33 -82.5q0 -49 -33 -80.5t-86 -31.5q-48 0 -80 31.5t-32 80.5z" />
    <glyph glyph-name="dotlessi" unicode="&#x131;" horiz-adv-x="566" 
d="M115 0l188 1056h203l-188 -1056h-203z" />
    <glyph glyph-name="OE" unicode="&#x152;" horiz-adv-x="2018" 
d="M174 676l38 205q44 244 197 378t373 134q153 0 265.5 -63t161.5 -173h4l36 209h817l-31 -186h-625l-73 -398h590l-30 -178h-590l-77 -418h626l-31 -186h-813l24 139h-4q-62 -84 -160.5 -125t-213.5 -41q-109 0 -199.5 33t-157.5 96t-104.5 163t-37.5 227q0 98 15 184z
M419 841l-34 -180q-13 -75 -13 -147q0 -165 90.5 -256t248.5 -91q317 0 380 371l32 193q9 51 9 112q0 155 -91.5 254.5t-250.5 99.5q-144 0 -241 -90t-130 -266z" />
    <glyph glyph-name="oe" unicode="&#x153;" horiz-adv-x="1843" 
d="M1282 -19q-124 0 -215.5 53.5t-132.5 154.5h-4q-48 -97 -145.5 -151.5t-226.5 -54.5q-186 0 -307.5 111t-121.5 316q0 73 11 136l23 128q31 182 155.5 291t304.5 109q125 0 224.5 -53.5t144.5 -156.5h4q118 210 378 210q112 0 196 -40.5t129 -106.5t63.5 -143t8.5 -157
q0 -12 -12.5 -79.5t-12.5 -68.5h-685q0 -1 -2.5 -13t-2.5 -14q-4 -24 -4 -56q0 -104 57.5 -171.5t179.5 -67.5q88 0 146.5 35.5t74.5 89.5h198q-18 -119 -137.5 -210t-288.5 -91zM361 634l-21 -114q-10 -62 -10 -101q0 -117 65.5 -188t180.5 -71q111 0 179.5 71.5
t90.5 202.5l22 122q5 30 5 83q0 117 -66 188t-179 71q-104 0 -174 -67.5t-93 -196.5zM1575 624q3 9 3 21q20 110 -35.5 184.5t-173.5 74.5q-97 0 -170 -56t-97 -164l-13 -60h486z" />
    <glyph glyph-name="circumflex" unicode="&#x2c6;" horiz-adv-x="1000" 
d="M330 1195l308 368h142l182 -368h-165l-104 245h-6l-190 -245h-167z" />
    <glyph glyph-name="ring" unicode="&#x2da;" horiz-adv-x="1000" 
d="M675 1322q42 0 71.5 29t29.5 70q0 42 -29.5 70.5t-71.5 28.5t-72 -28.5t-30 -70.5q0 -40 30.5 -69.5t71.5 -29.5zM674 1221q-83 0 -140 58.5t-57 141.5q0 84 58 141.5t141 57.5q82 0 138.5 -58t56.5 -141q0 -84 -57.5 -142t-139.5 -58z" />
    <glyph glyph-name="tilde" unicode="&#x2dc;" horiz-adv-x="1000" 
d="M791 1169q-40 0 -73 17t-53.5 41.5t-38.5 48.5t-39 41t-45 17q-62 0 -82 -114h-133q9 118 66 188t145 70q42 0 77 -17t57 -41t41 -48t39 -41t42 -17q34 0 54.5 35t27.5 80h134q-5 -106 -66.5 -183t-152.5 -77z" />
    <glyph glyph-name="enquad" unicode="&#x2000;" horiz-adv-x="1024" 
 />
    <glyph glyph-name="emquad" unicode="&#x2001;" horiz-adv-x="2048" 
 />
    <glyph glyph-name="enspace" unicode="&#x2002;" horiz-adv-x="1214" 
 />
    <glyph glyph-name="emspace" unicode="&#x2003;" horiz-adv-x="1930" 
 />
    <glyph glyph-name="thirdemspace" unicode="&#x2004;" horiz-adv-x="683" 
 />
    <glyph glyph-name="quarteremspace" unicode="&#x2005;" horiz-adv-x="512" 
 />
    <glyph glyph-name="sixthemspace" unicode="&#x2006;" horiz-adv-x="341" 
 />
    <glyph glyph-name="figurespace" unicode="&#x2007;" 
 />
    <glyph glyph-name="punctuationspace" unicode="&#x2008;" horiz-adv-x="544" 
 />
    <glyph glyph-name="thinspace" unicode="&#x2009;" horiz-adv-x="410" 
 />
    <glyph glyph-name="hairspace" unicode="&#x200a;" horiz-adv-x="114" 
 />
    <glyph glyph-name="zerowidthspace" unicode="&#x200b;" horiz-adv-x="0" 
 />
    <glyph glyph-name="endash" unicode="&#x2013;" horiz-adv-x="1209" 
d="M1227 466h-1209l32 193h1208z" />
    <glyph glyph-name="emdash" unicode="&#x2014;" horiz-adv-x="2048" 
d="M2066 466h-2048l32 193h2048z" />
    <glyph glyph-name="quoteleft" unicode="&#x2018;" horiz-adv-x="647" 
d="M502 1365h167l-210 -565h-229z" />
    <glyph glyph-name="quoteright" unicode="&#x2019;" horiz-adv-x="648" 
d="M398 800h-168l210 565h230z" />
    <glyph glyph-name="quotesinglbase" unicode="&#x201a;" horiz-adv-x="647" 
d="M175 -459h-167l210 565h229z" />
    <glyph glyph-name="quotedblleft" unicode="&#x201c;" horiz-adv-x="1054" 
d="M901 1365h175l-173 -565h-223zM450 1365h179l-177 -565h-222z" />
    <glyph glyph-name="quotedblright" unicode="&#x201d;" horiz-adv-x="1054" 
d="M405 800h-175l172 565h223zM855 800h-179l178 565h222z" />
    <glyph glyph-name="quotedblbase" unicode="&#x201e;" horiz-adv-x="1053" 
d="M183 -458h-175l172 565h223zM633 -458h-179l178 565h222z" />
    <glyph glyph-name="dagger" unicode="&#x2020;" horiz-adv-x="984" 
d="M953 923l-275 2l-107 -601h-174l109 601l-276 -2l29 174l275 -1l46 269h175l-49 -269l276 1z" />
    <glyph glyph-name="daggerdbl" unicode="&#x2021;" horiz-adv-x="984" 
d="M881 515l-275 2l-36 -212h-175l39 212l-275 -2l27 167l275 -2l26 155l30 154l-276 -1l28 167l275 -2l36 212h175l-40 -212l276 2l-27 -167l-275 1l-27 -155l-29 -154l276 2z" />
    <glyph glyph-name="bullet" unicode="&#x2022;" horiz-adv-x="984" 
d="M531 293q-127 0 -218 92t-91 220q0 130 90.5 222t218.5 92t218.5 -92t90.5 -222q0 -128 -91 -220t-218 -92z" />
    <glyph glyph-name="uni2023" unicode="&#x2023;" horiz-adv-x="984" 
d="M246 273l569 335l-453 335z" />
    <glyph glyph-name="ellipsis" unicode="&#x2026;" horiz-adv-x="1584" 
d="M1104 134q0 68 44 112t107 44q66 0 110 -43.5t44 -112.5q0 -67 -44 -109.5t-110 -42.5q-63 0 -107 43t-44 109zM597 134q0 68 43.5 112t106.5 44q67 0 111 -43.5t44 -112.5q0 -67 -44 -109.5t-111 -42.5q-63 0 -106.5 43t-43.5 109zM90 134q0 68 43.5 112t106.5 44
q67 0 111 -43.5t44 -112.5q0 -67 -44 -109.5t-111 -42.5q-63 0 -106.5 43t-43.5 109z" />
    <glyph glyph-name="nonbreakingspace.narrow" unicode="&#x202f;" horiz-adv-x="461" 
 />
    <glyph glyph-name="perthousand" unicode="&#x2030;" horiz-adv-x="2182" 
d="M272 1065l-4 -27q-5 -37 -5 -70q0 -70 29.5 -114t88.5 -44q61 0 101 46.5t51 128.5l5 33q4 44 4 63q0 72 -29.5 117.5t-87.5 45.5q-61 0 -101 -48.5t-52 -130.5zM129 1055l5 35q19 128 99 207t196 79q118 0 186 -82.5t68 -211.5q0 -44 -6 -80l-5 -35q-19 -125 -99 -207
t-199 -82t-185.5 81.5t-66.5 213.5q0 44 7 82zM1096 377l-3 -28q-6 -33 -6 -69q0 -71 30 -114.5t89 -43.5q61 0 101 46.5t51 128.5l4 33q5 37 5 62q0 73 -29 118t-88 45q-61 0 -101.5 -48.5t-52.5 -129.5zM953 367l5 35q20 128 100 207t196 79q118 0 186 -82.5t68 -211.5
q0 -40 -7 -80l-5 -36q-18 -125 -98.5 -206.5t-199.5 -81.5t-185 81.5t-66 213.5q0 41 6 82zM1759 377l-3 -28q-6 -33 -6 -69q0 -71 30 -114.5t89 -43.5q61 0 101 46.5t51 128.5l4 33q5 37 5 62q0 73 -29 118t-88 45q-61 0 -101.5 -48.5t-52.5 -129.5zM1616 367l5 35
q20 128 100 207t196 79q118 0 186 -82.5t68 -211.5q0 -40 -7 -80l-5 -36q-18 -125 -98.5 -206.5t-199.5 -81.5t-185 81.5t-66 213.5q0 41 6 82zM340 0h-172l563 683l562 683h173l-563 -683z" />
    <glyph glyph-name="u2032" unicode="&#x2032;" horiz-adv-x="640" 
d="M398 800h-168l210 565h230z" />
    <glyph glyph-name="u2033" unicode="&#x2033;" horiz-adv-x="1082" 
d="M398 800h-168l210 565h230zM801 800h-168l210 565h230z" />
    <glyph glyph-name="u2034" unicode="&#x2034;" horiz-adv-x="1454" 
d="M398 800h-168l210 565h230zM801 800h-168l210 565h230zM1201 800h-168l210 565h230z" />
    <glyph glyph-name="guilsinglleft" unicode="&#x2039;" horiz-adv-x="856" 
d="M184 565l415 404h213l-419 -409l-1 -6l258 -399h-203l-265 402z" />
    <glyph glyph-name="guilsinglright" unicode="&#x203a;" horiz-adv-x="847" 
d="M731 565l-1 -8l-406 -402h-212l401 409l1 6l-259 399h204z" />
    <glyph glyph-name="uni2043" unicode="&#x2043;" horiz-adv-x="984" 
d="M792 464h-523l32 192h523z" />
    <glyph glyph-name="fraction" unicode="&#x2044;" horiz-adv-x="1180" 
d="M164 0h-172l563 683l562 683h173l-563 -683z" />
    <glyph glyph-name="mathspacemedium" unicode="&#x205f;" horiz-adv-x="512" 
 />
    <glyph glyph-name="Euro" unicode="&#x20ac;" 
d="M703 479h-295q2 -161 62 -234.5t195 -73.5q124 0 183.5 56t82.5 156h202q-6 -36 -7 -40q-14 -72 -44.5 -133.5t-83 -117t-138.5 -87.5t-197 -32q-105 0 -189 30t-146.5 90t-96.5 158t-35 227v1h-163l24 135h144q4 65 17 155h-134l24 135h134q107 489 520 489
q113 0 202 -35.5t142.5 -95t81.5 -133.5t28 -156q0 -36 -3 -48h-200q2 13 0 31q-20 241 -255 241q-38 0 -70 -6.5t-68 -26t-65 -51t-56 -85t-45 -124.5h323l-23 -135h-327q-12 -78 -16 -155h315z" />
    <glyph glyph-name="minus" unicode="&#x2212;" horiz-adv-x="1180" 
d="M1083 448h-956l31 184h956z" />
    <glyph glyph-name="idotaccent" horiz-adv-x="566" 
d="M341 1361q0 52 33 86t82 34q51 0 84.5 -34t33.5 -86q0 -51 -33.5 -85t-84.5 -34q-49 0 -82 34t-33 85zM115 0l188 1056h203l-188 -1056h-203z" />
    <glyph glyph-name="colon.1" horiz-adv-x="568" 
d="M242 1007q0 69 44 112.5t107 43.5q66 0 110 -44t44 -112q0 -67 -44 -110t-110 -43q-63 0 -107 43.5t-44 109.5zM128 337q0 69 43.5 113t106.5 44q67 0 111 -44t44 -113q0 -67 -44 -109.5t-111 -42.5q-63 0 -106.5 43t-43.5 109z" />
    </font>
</defs>
</svg>
